G04 #@! TF.GenerationSoftware,KiCad,Pcbnew,(5.0.0)*
G04 #@! TF.CreationDate,2018-12-08T20:10:30+09:00*
G04 #@! TF.ProjectId,PocketBeagle,506F636B6574426561676C652E6B6963,rev?*
G04 #@! TF.SameCoordinates,Original*
G04 #@! TF.FileFunction,Copper,L2,Inr,Signal*
G04 #@! TF.FilePolarity,Positive*
%FSLAX46Y46*%
G04 Gerber Fmt 4.6, Leading zero omitted, Abs format (unit mm)*
G04 Created by KiCad (PCBNEW (5.0.0)) date 12/08/18 20:10:30*
%MOMM*%
%LPD*%
G01*
G04 APERTURE LIST*
G04 #@! TA.AperFunction,ViaPad*
%ADD10C,1.524000*%
G04 #@! TD*
G04 APERTURE END LIST*
D10*
G04 #@! TO.N,Net-(J1-Pad36)*
G04 #@! TO.C,J1*
X170180000Y-116840000D03*
G04 #@! TO.N,Net-(J1-Pad35)*
X170180000Y-119380000D03*
G04 #@! TO.N,Net-(J1-Pad34)*
X167640000Y-116840000D03*
G04 #@! TO.N,Net-(J1-Pad33)*
X167640000Y-119380000D03*
G04 #@! TO.N,Net-(J1-Pad32)*
X165100000Y-116840000D03*
G04 #@! TO.N,Net-(J1-Pad31)*
X165100000Y-119380000D03*
G04 #@! TO.N,Net-(J1-Pad30)*
X162560000Y-116840000D03*
G04 #@! TO.N,Net-(J1-Pad29)*
X162560000Y-119380000D03*
G04 #@! TO.N,Net-(J1-Pad28)*
X160020000Y-116840000D03*
G04 #@! TO.N,Net-(J1-Pad27)*
X160020000Y-119380000D03*
G04 #@! TO.N,Net-(J1-Pad26)*
X157480000Y-116840000D03*
G04 #@! TO.N,Net-(J1-Pad25)*
X157480000Y-119380000D03*
G04 #@! TO.N,Net-(J1-Pad24)*
X154940000Y-116840000D03*
G04 #@! TO.N,Net-(J1-Pad23)*
X154940000Y-119380000D03*
G04 #@! TO.N,Net-(J1-Pad22)*
X152400000Y-116840000D03*
G04 #@! TO.N,Net-(J1-Pad21)*
X152400000Y-119380000D03*
G04 #@! TO.N,Net-(J1-Pad20)*
X149860000Y-116840000D03*
G04 #@! TO.N,Net-(J1-Pad19)*
X149860000Y-119380000D03*
G04 #@! TO.N,Net-(J1-Pad18)*
X147320000Y-116840000D03*
G04 #@! TO.N,Net-(J1-Pad17)*
X147320000Y-119380000D03*
G04 #@! TO.N,Net-(J1-Pad16)*
X144780000Y-116840000D03*
G04 #@! TO.N,Net-(J1-Pad15)*
X144780000Y-119380000D03*
G04 #@! TO.N,Net-(J1-Pad14)*
X142240000Y-116840000D03*
G04 #@! TO.N,Net-(J1-Pad13)*
X142240000Y-119380000D03*
G04 #@! TO.N,Net-(J1-Pad12)*
X139700000Y-116840000D03*
G04 #@! TO.N,Net-(J1-Pad11)*
X139700000Y-119380000D03*
G04 #@! TO.N,Net-(J1-Pad10)*
X137160000Y-116840000D03*
G04 #@! TO.N,Net-(J1-Pad9)*
X137160000Y-119380000D03*
G04 #@! TO.N,Net-(J1-Pad8)*
X134620000Y-116840000D03*
G04 #@! TO.N,Net-(J1-Pad7)*
X134620000Y-119380000D03*
G04 #@! TO.N,Net-(J1-Pad6)*
X132080000Y-116840000D03*
G04 #@! TO.N,Net-(J1-Pad5)*
X132080000Y-119380000D03*
G04 #@! TO.N,Net-(J1-Pad4)*
X129540000Y-116840000D03*
G04 #@! TO.N,Net-(J1-Pad3)*
X129540000Y-119380000D03*
G04 #@! TO.N,Net-(J1-Pad2)*
X127000000Y-116840000D03*
G04 #@! TO.N,Net-(J1-Pad1)*
X127000000Y-119380000D03*
G04 #@! TD*
G04 #@! TO.N,Net-(J1-Pad1)*
G04 #@! TO.C,J2*
X127000000Y-114300000D03*
G04 #@! TO.N,Net-(J1-Pad2)*
X127000000Y-111760000D03*
G04 #@! TO.N,Net-(J1-Pad3)*
X129540000Y-114300000D03*
G04 #@! TO.N,Net-(J1-Pad4)*
X129540000Y-111760000D03*
G04 #@! TO.N,Net-(J1-Pad5)*
X132080000Y-114300000D03*
G04 #@! TO.N,Net-(J1-Pad6)*
X132080000Y-111760000D03*
G04 #@! TO.N,Net-(J1-Pad7)*
X134620000Y-114300000D03*
G04 #@! TO.N,Net-(J1-Pad8)*
X134620000Y-111760000D03*
G04 #@! TO.N,Net-(J1-Pad9)*
X137160000Y-114300000D03*
G04 #@! TO.N,Net-(J1-Pad10)*
X137160000Y-111760000D03*
G04 #@! TO.N,Net-(J1-Pad11)*
X139700000Y-114300000D03*
G04 #@! TO.N,Net-(J1-Pad12)*
X139700000Y-111760000D03*
G04 #@! TO.N,Net-(J1-Pad13)*
X142240000Y-114300000D03*
G04 #@! TO.N,Net-(J1-Pad14)*
X142240000Y-111760000D03*
G04 #@! TO.N,Net-(J1-Pad15)*
X144780000Y-114300000D03*
G04 #@! TO.N,Net-(J1-Pad16)*
X144780000Y-111760000D03*
G04 #@! TO.N,Net-(J1-Pad17)*
X147320000Y-114300000D03*
G04 #@! TO.N,Net-(J1-Pad18)*
X147320000Y-111760000D03*
G04 #@! TO.N,Net-(J1-Pad19)*
X149860000Y-114300000D03*
G04 #@! TO.N,Net-(J1-Pad20)*
X149860000Y-111760000D03*
G04 #@! TO.N,Net-(J1-Pad21)*
X152400000Y-114300000D03*
G04 #@! TO.N,Net-(J1-Pad22)*
X152400000Y-111760000D03*
G04 #@! TO.N,Net-(J1-Pad23)*
X154940000Y-114300000D03*
G04 #@! TO.N,Net-(J1-Pad24)*
X154940000Y-111760000D03*
G04 #@! TO.N,Net-(J1-Pad25)*
X157480000Y-114300000D03*
G04 #@! TO.N,Net-(J1-Pad26)*
X157480000Y-111760000D03*
G04 #@! TO.N,Net-(J1-Pad27)*
X160020000Y-114300000D03*
G04 #@! TO.N,Net-(J1-Pad28)*
X160020000Y-111760000D03*
G04 #@! TO.N,Net-(J1-Pad29)*
X162560000Y-114300000D03*
G04 #@! TO.N,Net-(J1-Pad30)*
X162560000Y-111760000D03*
G04 #@! TO.N,Net-(J1-Pad31)*
X165100000Y-114300000D03*
G04 #@! TO.N,Net-(J1-Pad32)*
X165100000Y-111760000D03*
G04 #@! TO.N,Net-(J1-Pad33)*
X167640000Y-114300000D03*
G04 #@! TO.N,Net-(J1-Pad34)*
X167640000Y-111760000D03*
G04 #@! TO.N,Net-(J1-Pad35)*
X170180000Y-114300000D03*
G04 #@! TO.N,Net-(J1-Pad36)*
X170180000Y-111760000D03*
G04 #@! TD*
G04 #@! TO.N,Net-(J3-Pad1)*
G04 #@! TO.C,J3*
X127000000Y-93980000D03*
G04 #@! TO.N,Net-(J3-Pad2)*
X127000000Y-91440000D03*
G04 #@! TO.N,Net-(J3-Pad3)*
X129540000Y-93980000D03*
G04 #@! TO.N,Net-(J3-Pad4)*
X129540000Y-91440000D03*
G04 #@! TO.N,Net-(J3-Pad5)*
X132080000Y-93980000D03*
G04 #@! TO.N,Net-(J3-Pad6)*
X132080000Y-91440000D03*
G04 #@! TO.N,Net-(J3-Pad7)*
X134620000Y-93980000D03*
G04 #@! TO.N,Net-(J3-Pad8)*
X134620000Y-91440000D03*
G04 #@! TO.N,Net-(J3-Pad9)*
X137160000Y-93980000D03*
G04 #@! TO.N,Net-(J3-Pad10)*
X137160000Y-91440000D03*
G04 #@! TO.N,Net-(J3-Pad11)*
X139700000Y-93980000D03*
G04 #@! TO.N,Net-(J3-Pad12)*
X139700000Y-91440000D03*
G04 #@! TO.N,Net-(J3-Pad13)*
X142240000Y-93980000D03*
G04 #@! TO.N,Net-(J3-Pad14)*
X142240000Y-91440000D03*
G04 #@! TO.N,Net-(J3-Pad15)*
X144780000Y-93980000D03*
G04 #@! TO.N,Net-(J3-Pad16)*
X144780000Y-91440000D03*
G04 #@! TO.N,Net-(J3-Pad17)*
X147320000Y-93980000D03*
G04 #@! TO.N,Net-(J3-Pad18)*
X147320000Y-91440000D03*
G04 #@! TO.N,Net-(J3-Pad19)*
X149860000Y-93980000D03*
G04 #@! TO.N,Net-(J3-Pad20)*
X149860000Y-91440000D03*
G04 #@! TO.N,Net-(J3-Pad21)*
X152400000Y-93980000D03*
G04 #@! TO.N,Net-(J3-Pad22)*
X152400000Y-91440000D03*
G04 #@! TO.N,Net-(J3-Pad23)*
X154940000Y-93980000D03*
G04 #@! TO.N,Net-(J3-Pad24)*
X154940000Y-91440000D03*
G04 #@! TO.N,Net-(J3-Pad25)*
X157480000Y-93980000D03*
G04 #@! TO.N,Net-(J3-Pad26)*
X157480000Y-91440000D03*
G04 #@! TO.N,Net-(J3-Pad27)*
X160020000Y-93980000D03*
G04 #@! TO.N,Net-(J3-Pad28)*
X160020000Y-91440000D03*
G04 #@! TO.N,Net-(J3-Pad29)*
X162560000Y-93980000D03*
G04 #@! TO.N,Net-(J3-Pad30)*
X162560000Y-91440000D03*
G04 #@! TO.N,Net-(J3-Pad31)*
X165100000Y-93980000D03*
G04 #@! TO.N,Net-(J3-Pad32)*
X165100000Y-91440000D03*
G04 #@! TO.N,Net-(J3-Pad33)*
X167640000Y-93980000D03*
G04 #@! TO.N,Net-(J3-Pad34)*
X167640000Y-91440000D03*
G04 #@! TO.N,Net-(J3-Pad35)*
X170180000Y-93980000D03*
G04 #@! TO.N,Net-(J3-Pad36)*
X170180000Y-91440000D03*
G04 #@! TD*
G04 #@! TO.N,Net-(J3-Pad36)*
G04 #@! TO.C,J4*
X170180000Y-96520000D03*
G04 #@! TO.N,Net-(J3-Pad35)*
X170180000Y-99060000D03*
G04 #@! TO.N,Net-(J3-Pad34)*
X167640000Y-96520000D03*
G04 #@! TO.N,Net-(J3-Pad33)*
X167640000Y-99060000D03*
G04 #@! TO.N,Net-(J3-Pad32)*
X165100000Y-96520000D03*
G04 #@! TO.N,Net-(J3-Pad31)*
X165100000Y-99060000D03*
G04 #@! TO.N,Net-(J3-Pad30)*
X162560000Y-96520000D03*
G04 #@! TO.N,Net-(J3-Pad29)*
X162560000Y-99060000D03*
G04 #@! TO.N,Net-(J3-Pad28)*
X160020000Y-96520000D03*
G04 #@! TO.N,Net-(J3-Pad27)*
X160020000Y-99060000D03*
G04 #@! TO.N,Net-(J3-Pad26)*
X157480000Y-96520000D03*
G04 #@! TO.N,Net-(J3-Pad25)*
X157480000Y-99060000D03*
G04 #@! TO.N,Net-(J3-Pad24)*
X154940000Y-96520000D03*
G04 #@! TO.N,Net-(J3-Pad23)*
X154940000Y-99060000D03*
G04 #@! TO.N,Net-(J3-Pad22)*
X152400000Y-96520000D03*
G04 #@! TO.N,Net-(J3-Pad21)*
X152400000Y-99060000D03*
G04 #@! TO.N,Net-(J3-Pad20)*
X149860000Y-96520000D03*
G04 #@! TO.N,Net-(J3-Pad19)*
X149860000Y-99060000D03*
G04 #@! TO.N,Net-(J3-Pad18)*
X147320000Y-96520000D03*
G04 #@! TO.N,Net-(J3-Pad17)*
X147320000Y-99060000D03*
G04 #@! TO.N,Net-(J3-Pad16)*
X144780000Y-96520000D03*
G04 #@! TO.N,Net-(J3-Pad15)*
X144780000Y-99060000D03*
G04 #@! TO.N,Net-(J3-Pad14)*
X142240000Y-96520000D03*
G04 #@! TO.N,Net-(J3-Pad13)*
X142240000Y-99060000D03*
G04 #@! TO.N,Net-(J3-Pad12)*
X139700000Y-96520000D03*
G04 #@! TO.N,Net-(J3-Pad11)*
X139700000Y-99060000D03*
G04 #@! TO.N,Net-(J3-Pad10)*
X137160000Y-96520000D03*
G04 #@! TO.N,Net-(J3-Pad9)*
X137160000Y-99060000D03*
G04 #@! TO.N,Net-(J3-Pad8)*
X134620000Y-96520000D03*
G04 #@! TO.N,Net-(J3-Pad7)*
X134620000Y-99060000D03*
G04 #@! TO.N,Net-(J3-Pad6)*
X132080000Y-96520000D03*
G04 #@! TO.N,Net-(J3-Pad5)*
X132080000Y-99060000D03*
G04 #@! TO.N,Net-(J3-Pad4)*
X129540000Y-96520000D03*
G04 #@! TO.N,Net-(J3-Pad3)*
X129540000Y-99060000D03*
G04 #@! TO.N,Net-(J3-Pad2)*
X127000000Y-96520000D03*
G04 #@! TO.N,Net-(J3-Pad1)*
X127000000Y-99060000D03*
G04 #@! TD*
G04 #@! TO.N,Net-(J5-Pad4)*
G04 #@! TO.C,J5*
X139700000Y-109220000D03*
G04 #@! TO.N,Net-(J5-Pad3)*
X139700000Y-106680000D03*
G04 #@! TO.N,Net-(J5-Pad2)*
X139700000Y-104140000D03*
G04 #@! TO.N,Net-(J5-Pad1)*
X139700000Y-101600000D03*
G04 #@! TD*
G04 #@! TO.N,Net-(J6-Pad4)*
G04 #@! TO.C,J6*
X142240000Y-109220000D03*
G04 #@! TO.N,Net-(J6-Pad3)*
X142240000Y-106680000D03*
G04 #@! TO.N,Net-(J6-Pad2)*
X142240000Y-104140000D03*
G04 #@! TO.N,Net-(J6-Pad1)*
X142240000Y-101600000D03*
G04 #@! TD*
G04 #@! TO.N,Net-(J7-Pad1)*
G04 #@! TO.C,J7*
X144780000Y-101600000D03*
G04 #@! TO.N,Net-(J7-Pad2)*
X144780000Y-104140000D03*
G04 #@! TO.N,Net-(J7-Pad3)*
X144780000Y-106680000D03*
G04 #@! TO.N,Net-(J7-Pad4)*
X144780000Y-109220000D03*
G04 #@! TD*
G04 #@! TO.N,Net-(J8-Pad1)*
G04 #@! TO.C,J8*
X147320000Y-101600000D03*
G04 #@! TO.N,Net-(J8-Pad2)*
X147320000Y-104140000D03*
G04 #@! TO.N,Net-(J8-Pad3)*
X147320000Y-106680000D03*
G04 #@! TO.N,Net-(J8-Pad4)*
X147320000Y-109220000D03*
G04 #@! TD*
G04 #@! TO.N,Net-(J9-Pad4)*
G04 #@! TO.C,J9*
X149860000Y-109220000D03*
G04 #@! TO.N,Net-(J9-Pad3)*
X149860000Y-106680000D03*
G04 #@! TO.N,Net-(J9-Pad2)*
X149860000Y-104140000D03*
G04 #@! TO.N,Net-(J9-Pad1)*
X149860000Y-101600000D03*
G04 #@! TD*
G04 #@! TO.N,Net-(J10-Pad1)*
G04 #@! TO.C,J10*
X152400000Y-101600000D03*
G04 #@! TO.N,Net-(J10-Pad2)*
X152400000Y-104140000D03*
G04 #@! TO.N,Net-(J10-Pad3)*
X152400000Y-106680000D03*
G04 #@! TO.N,Net-(J10-Pad4)*
X152400000Y-109220000D03*
G04 #@! TD*
G04 #@! TO.N,Net-(J11-Pad4)*
G04 #@! TO.C,J11*
X127000000Y-109220000D03*
G04 #@! TO.N,Net-(J11-Pad3)*
X127000000Y-106680000D03*
G04 #@! TO.N,Net-(J11-Pad2)*
X127000000Y-104140000D03*
G04 #@! TO.N,Net-(J11-Pad1)*
X127000000Y-101600000D03*
G04 #@! TD*
G04 #@! TO.N,Net-(J12-Pad1)*
G04 #@! TO.C,J12*
X157480000Y-101600000D03*
G04 #@! TO.N,Net-(J12-Pad2)*
X157480000Y-104140000D03*
G04 #@! TO.N,Net-(J12-Pad3)*
X157480000Y-106680000D03*
G04 #@! TO.N,Net-(J12-Pad4)*
X157480000Y-109220000D03*
G04 #@! TD*
G04 #@! TO.N,Net-(J13-Pad4)*
G04 #@! TO.C,J13*
X160020000Y-109220000D03*
G04 #@! TO.N,Net-(J13-Pad3)*
X160020000Y-106680000D03*
G04 #@! TO.N,Net-(J13-Pad2)*
X160020000Y-104140000D03*
G04 #@! TO.N,Net-(J13-Pad1)*
X160020000Y-101600000D03*
G04 #@! TD*
G04 #@! TO.N,Net-(J14-Pad1)*
G04 #@! TO.C,J14*
X162560000Y-101600000D03*
G04 #@! TO.N,Net-(J14-Pad2)*
X162560000Y-104140000D03*
G04 #@! TO.N,Net-(J14-Pad3)*
X162560000Y-106680000D03*
G04 #@! TO.N,Net-(J14-Pad4)*
X162560000Y-109220000D03*
G04 #@! TD*
G04 #@! TO.N,Net-(J15-Pad4)*
G04 #@! TO.C,J15*
X165100000Y-109220000D03*
G04 #@! TO.N,Net-(J15-Pad3)*
X165100000Y-106680000D03*
G04 #@! TO.N,Net-(J15-Pad2)*
X165100000Y-104140000D03*
G04 #@! TO.N,Net-(J15-Pad1)*
X165100000Y-101600000D03*
G04 #@! TD*
G04 #@! TO.N,Net-(J16-Pad1)*
G04 #@! TO.C,J16*
X167640000Y-101600000D03*
G04 #@! TO.N,Net-(J16-Pad2)*
X167640000Y-104140000D03*
G04 #@! TO.N,Net-(J16-Pad3)*
X167640000Y-106680000D03*
G04 #@! TO.N,Net-(J16-Pad4)*
X167640000Y-109220000D03*
G04 #@! TD*
G04 #@! TO.N,Net-(J17-Pad4)*
G04 #@! TO.C,J17*
X170180000Y-109220000D03*
G04 #@! TO.N,Net-(J17-Pad3)*
X170180000Y-106680000D03*
G04 #@! TO.N,Net-(J17-Pad2)*
X170180000Y-104140000D03*
G04 #@! TO.N,Net-(J17-Pad1)*
X170180000Y-101600000D03*
G04 #@! TD*
G04 #@! TO.N,Net-(J20-Pad1)*
G04 #@! TO.C,J20*
X129540000Y-101600000D03*
G04 #@! TO.N,Net-(J20-Pad2)*
X129540000Y-104140000D03*
G04 #@! TO.N,Net-(J20-Pad3)*
X129540000Y-106680000D03*
G04 #@! TO.N,Net-(J20-Pad4)*
X129540000Y-109220000D03*
G04 #@! TD*
G04 #@! TO.N,Net-(J21-Pad4)*
G04 #@! TO.C,J21*
X154940000Y-109220000D03*
G04 #@! TO.N,Net-(J21-Pad3)*
X154940000Y-106680000D03*
G04 #@! TO.N,Net-(J21-Pad2)*
X154940000Y-104140000D03*
G04 #@! TO.N,Net-(J21-Pad1)*
X154940000Y-101600000D03*
G04 #@! TD*
G04 #@! TO.N,Net-(J22-Pad1)*
G04 #@! TO.C,J22*
X137160000Y-101600000D03*
G04 #@! TO.N,Net-(J22-Pad2)*
X137160000Y-104140000D03*
G04 #@! TO.N,Net-(J22-Pad3)*
X137160000Y-106680000D03*
G04 #@! TO.N,Net-(J22-Pad4)*
X137160000Y-109220000D03*
G04 #@! TD*
G04 #@! TO.N,Net-(J23-Pad1)*
G04 #@! TO.C,J23*
X124460000Y-109220000D03*
X124460000Y-106680000D03*
X124460000Y-104140000D03*
X124460000Y-101600000D03*
G04 #@! TD*
G04 #@! TO.N,Net-(J24-Pad1)*
G04 #@! TO.C,J24*
X172720000Y-101600000D03*
X172720000Y-104140000D03*
X172720000Y-106680000D03*
X172720000Y-109220000D03*
G04 #@! TD*
G04 #@! TO.N,Net-(J18-Pad4)*
G04 #@! TO.C,J18*
X132080000Y-109220000D03*
G04 #@! TO.N,Net-(J18-Pad3)*
X132080000Y-106680000D03*
G04 #@! TO.N,Net-(J18-Pad2)*
X132080000Y-104140000D03*
G04 #@! TO.N,Net-(J18-Pad1)*
X132080000Y-101600000D03*
G04 #@! TD*
G04 #@! TO.N,Net-(J19-Pad1)*
G04 #@! TO.C,J19*
X134620000Y-101600000D03*
G04 #@! TO.N,Net-(J19-Pad2)*
X134620000Y-104140000D03*
G04 #@! TO.N,Net-(J19-Pad3)*
X134620000Y-106680000D03*
G04 #@! TO.N,Net-(J19-Pad4)*
X134620000Y-109220000D03*
G04 #@! TD*
G04 #@! TO.N,Net-(J24-Pad1)*
G04 #@! TO.C,J25*
X172720000Y-99060000D03*
X172720000Y-96520000D03*
G04 #@! TD*
G04 #@! TO.N,Net-(J24-Pad1)*
G04 #@! TO.C,J26*
X172720000Y-111760000D03*
X172720000Y-114300000D03*
G04 #@! TD*
G04 #@! TO.N,Net-(J23-Pad1)*
G04 #@! TO.C,J27*
X124460000Y-99060000D03*
X124460000Y-96520000D03*
G04 #@! TD*
G04 #@! TO.N,Net-(J23-Pad1)*
G04 #@! TO.C,J28*
X124460000Y-111760000D03*
X124460000Y-114300000D03*
G04 #@! TD*
G04 #@! TO.N,Net-(J23-Pad1)*
G04 #@! TO.C,J29*
X124460000Y-93980000D03*
G04 #@! TD*
G04 #@! TO.N,Net-(J23-Pad1)*
G04 #@! TO.C,J30*
X124460000Y-116840000D03*
G04 #@! TD*
G04 #@! TO.N,Net-(J24-Pad1)*
G04 #@! TO.C,J31*
X172720000Y-93980000D03*
G04 #@! TD*
G04 #@! TO.N,Net-(J24-Pad1)*
G04 #@! TO.C,J32*
X172720000Y-116840000D03*
G04 #@! TD*
M02*
