G04 #@! TF.GenerationSoftware,KiCad,Pcbnew,(5.0.0)*
G04 #@! TF.CreationDate,2018-12-08T20:10:30+09:00*
G04 #@! TF.ProjectId,PocketBeagle,506F636B6574426561676C652E6B6963,rev?*
G04 #@! TF.SameCoordinates,Original*
G04 #@! TF.FileFunction,Copper,L1,Top,Signal*
G04 #@! TF.FilePolarity,Positive*
%FSLAX46Y46*%
G04 Gerber Fmt 4.6, Leading zero omitted, Abs format (unit mm)*
G04 Created by KiCad (PCBNEW (5.0.0)) date 12/08/18 20:10:30*
%MOMM*%
%LPD*%
G01*
G04 APERTURE LIST*
G04 #@! TA.AperFunction,ComponentPad*
%ADD10C,1.524000*%
G04 #@! TD*
G04 #@! TA.AperFunction,Conductor*
%ADD11C,0.250000*%
G04 #@! TD*
G04 APERTURE END LIST*
D10*
G04 #@! TO.P,J1,36*
G04 #@! TO.N,Net-(J1-Pad36)*
X170180000Y-116840000D03*
G04 #@! TO.P,J1,35*
G04 #@! TO.N,Net-(J1-Pad35)*
X170180000Y-119380000D03*
G04 #@! TO.P,J1,34*
G04 #@! TO.N,Net-(J1-Pad34)*
X167640000Y-116840000D03*
G04 #@! TO.P,J1,33*
G04 #@! TO.N,Net-(J1-Pad33)*
X167640000Y-119380000D03*
G04 #@! TO.P,J1,32*
G04 #@! TO.N,Net-(J1-Pad32)*
X165100000Y-116840000D03*
G04 #@! TO.P,J1,31*
G04 #@! TO.N,Net-(J1-Pad31)*
X165100000Y-119380000D03*
G04 #@! TO.P,J1,30*
G04 #@! TO.N,Net-(J1-Pad30)*
X162560000Y-116840000D03*
G04 #@! TO.P,J1,29*
G04 #@! TO.N,Net-(J1-Pad29)*
X162560000Y-119380000D03*
G04 #@! TO.P,J1,28*
G04 #@! TO.N,Net-(J1-Pad28)*
X160020000Y-116840000D03*
G04 #@! TO.P,J1,27*
G04 #@! TO.N,Net-(J1-Pad27)*
X160020000Y-119380000D03*
G04 #@! TO.P,J1,26*
G04 #@! TO.N,Net-(J1-Pad26)*
X157480000Y-116840000D03*
G04 #@! TO.P,J1,25*
G04 #@! TO.N,Net-(J1-Pad25)*
X157480000Y-119380000D03*
G04 #@! TO.P,J1,24*
G04 #@! TO.N,Net-(J1-Pad24)*
X154940000Y-116840000D03*
G04 #@! TO.P,J1,23*
G04 #@! TO.N,Net-(J1-Pad23)*
X154940000Y-119380000D03*
G04 #@! TO.P,J1,22*
G04 #@! TO.N,Net-(J1-Pad22)*
X152400000Y-116840000D03*
G04 #@! TO.P,J1,21*
G04 #@! TO.N,Net-(J1-Pad21)*
X152400000Y-119380000D03*
G04 #@! TO.P,J1,20*
G04 #@! TO.N,Net-(J1-Pad20)*
X149860000Y-116840000D03*
G04 #@! TO.P,J1,19*
G04 #@! TO.N,Net-(J1-Pad19)*
X149860000Y-119380000D03*
G04 #@! TO.P,J1,18*
G04 #@! TO.N,Net-(J1-Pad18)*
X147320000Y-116840000D03*
G04 #@! TO.P,J1,17*
G04 #@! TO.N,Net-(J1-Pad17)*
X147320000Y-119380000D03*
G04 #@! TO.P,J1,16*
G04 #@! TO.N,Net-(J1-Pad16)*
X144780000Y-116840000D03*
G04 #@! TO.P,J1,15*
G04 #@! TO.N,Net-(J1-Pad15)*
X144780000Y-119380000D03*
G04 #@! TO.P,J1,14*
G04 #@! TO.N,Net-(J1-Pad14)*
X142240000Y-116840000D03*
G04 #@! TO.P,J1,13*
G04 #@! TO.N,Net-(J1-Pad13)*
X142240000Y-119380000D03*
G04 #@! TO.P,J1,12*
G04 #@! TO.N,Net-(J1-Pad12)*
X139700000Y-116840000D03*
G04 #@! TO.P,J1,11*
G04 #@! TO.N,Net-(J1-Pad11)*
X139700000Y-119380000D03*
G04 #@! TO.P,J1,10*
G04 #@! TO.N,Net-(J1-Pad10)*
X137160000Y-116840000D03*
G04 #@! TO.P,J1,9*
G04 #@! TO.N,Net-(J1-Pad9)*
X137160000Y-119380000D03*
G04 #@! TO.P,J1,8*
G04 #@! TO.N,Net-(J1-Pad8)*
X134620000Y-116840000D03*
G04 #@! TO.P,J1,7*
G04 #@! TO.N,Net-(J1-Pad7)*
X134620000Y-119380000D03*
G04 #@! TO.P,J1,6*
G04 #@! TO.N,Net-(J1-Pad6)*
X132080000Y-116840000D03*
G04 #@! TO.P,J1,5*
G04 #@! TO.N,Net-(J1-Pad5)*
X132080000Y-119380000D03*
G04 #@! TO.P,J1,4*
G04 #@! TO.N,Net-(J1-Pad4)*
X129540000Y-116840000D03*
G04 #@! TO.P,J1,3*
G04 #@! TO.N,Net-(J1-Pad3)*
X129540000Y-119380000D03*
G04 #@! TO.P,J1,2*
G04 #@! TO.N,Net-(J1-Pad2)*
X127000000Y-116840000D03*
G04 #@! TO.P,J1,1*
G04 #@! TO.N,Net-(J1-Pad1)*
X127000000Y-119380000D03*
G04 #@! TD*
G04 #@! TO.P,J2,1*
G04 #@! TO.N,Net-(J1-Pad1)*
X127000000Y-114300000D03*
G04 #@! TO.P,J2,2*
G04 #@! TO.N,Net-(J1-Pad2)*
X127000000Y-111760000D03*
G04 #@! TO.P,J2,3*
G04 #@! TO.N,Net-(J1-Pad3)*
X129540000Y-114300000D03*
G04 #@! TO.P,J2,4*
G04 #@! TO.N,Net-(J1-Pad4)*
X129540000Y-111760000D03*
G04 #@! TO.P,J2,5*
G04 #@! TO.N,Net-(J1-Pad5)*
X132080000Y-114300000D03*
G04 #@! TO.P,J2,6*
G04 #@! TO.N,Net-(J1-Pad6)*
X132080000Y-111760000D03*
G04 #@! TO.P,J2,7*
G04 #@! TO.N,Net-(J1-Pad7)*
X134620000Y-114300000D03*
G04 #@! TO.P,J2,8*
G04 #@! TO.N,Net-(J1-Pad8)*
X134620000Y-111760000D03*
G04 #@! TO.P,J2,9*
G04 #@! TO.N,Net-(J1-Pad9)*
X137160000Y-114300000D03*
G04 #@! TO.P,J2,10*
G04 #@! TO.N,Net-(J1-Pad10)*
X137160000Y-111760000D03*
G04 #@! TO.P,J2,11*
G04 #@! TO.N,Net-(J1-Pad11)*
X139700000Y-114300000D03*
G04 #@! TO.P,J2,12*
G04 #@! TO.N,Net-(J1-Pad12)*
X139700000Y-111760000D03*
G04 #@! TO.P,J2,13*
G04 #@! TO.N,Net-(J1-Pad13)*
X142240000Y-114300000D03*
G04 #@! TO.P,J2,14*
G04 #@! TO.N,Net-(J1-Pad14)*
X142240000Y-111760000D03*
G04 #@! TO.P,J2,15*
G04 #@! TO.N,Net-(J1-Pad15)*
X144780000Y-114300000D03*
G04 #@! TO.P,J2,16*
G04 #@! TO.N,Net-(J1-Pad16)*
X144780000Y-111760000D03*
G04 #@! TO.P,J2,17*
G04 #@! TO.N,Net-(J1-Pad17)*
X147320000Y-114300000D03*
G04 #@! TO.P,J2,18*
G04 #@! TO.N,Net-(J1-Pad18)*
X147320000Y-111760000D03*
G04 #@! TO.P,J2,19*
G04 #@! TO.N,Net-(J1-Pad19)*
X149860000Y-114300000D03*
G04 #@! TO.P,J2,20*
G04 #@! TO.N,Net-(J1-Pad20)*
X149860000Y-111760000D03*
G04 #@! TO.P,J2,21*
G04 #@! TO.N,Net-(J1-Pad21)*
X152400000Y-114300000D03*
G04 #@! TO.P,J2,22*
G04 #@! TO.N,Net-(J1-Pad22)*
X152400000Y-111760000D03*
G04 #@! TO.P,J2,23*
G04 #@! TO.N,Net-(J1-Pad23)*
X154940000Y-114300000D03*
G04 #@! TO.P,J2,24*
G04 #@! TO.N,Net-(J1-Pad24)*
X154940000Y-111760000D03*
G04 #@! TO.P,J2,25*
G04 #@! TO.N,Net-(J1-Pad25)*
X157480000Y-114300000D03*
G04 #@! TO.P,J2,26*
G04 #@! TO.N,Net-(J1-Pad26)*
X157480000Y-111760000D03*
G04 #@! TO.P,J2,27*
G04 #@! TO.N,Net-(J1-Pad27)*
X160020000Y-114300000D03*
G04 #@! TO.P,J2,28*
G04 #@! TO.N,Net-(J1-Pad28)*
X160020000Y-111760000D03*
G04 #@! TO.P,J2,29*
G04 #@! TO.N,Net-(J1-Pad29)*
X162560000Y-114300000D03*
G04 #@! TO.P,J2,30*
G04 #@! TO.N,Net-(J1-Pad30)*
X162560000Y-111760000D03*
G04 #@! TO.P,J2,31*
G04 #@! TO.N,Net-(J1-Pad31)*
X165100000Y-114300000D03*
G04 #@! TO.P,J2,32*
G04 #@! TO.N,Net-(J1-Pad32)*
X165100000Y-111760000D03*
G04 #@! TO.P,J2,33*
G04 #@! TO.N,Net-(J1-Pad33)*
X167640000Y-114300000D03*
G04 #@! TO.P,J2,34*
G04 #@! TO.N,Net-(J1-Pad34)*
X167640000Y-111760000D03*
G04 #@! TO.P,J2,35*
G04 #@! TO.N,Net-(J1-Pad35)*
X170180000Y-114300000D03*
G04 #@! TO.P,J2,36*
G04 #@! TO.N,Net-(J1-Pad36)*
X170180000Y-111760000D03*
G04 #@! TD*
G04 #@! TO.P,J3,1*
G04 #@! TO.N,Net-(J3-Pad1)*
X127000000Y-93980000D03*
G04 #@! TO.P,J3,2*
G04 #@! TO.N,Net-(J3-Pad2)*
X127000000Y-91440000D03*
G04 #@! TO.P,J3,3*
G04 #@! TO.N,Net-(J3-Pad3)*
X129540000Y-93980000D03*
G04 #@! TO.P,J3,4*
G04 #@! TO.N,Net-(J3-Pad4)*
X129540000Y-91440000D03*
G04 #@! TO.P,J3,5*
G04 #@! TO.N,Net-(J3-Pad5)*
X132080000Y-93980000D03*
G04 #@! TO.P,J3,6*
G04 #@! TO.N,Net-(J3-Pad6)*
X132080000Y-91440000D03*
G04 #@! TO.P,J3,7*
G04 #@! TO.N,Net-(J3-Pad7)*
X134620000Y-93980000D03*
G04 #@! TO.P,J3,8*
G04 #@! TO.N,Net-(J3-Pad8)*
X134620000Y-91440000D03*
G04 #@! TO.P,J3,9*
G04 #@! TO.N,Net-(J3-Pad9)*
X137160000Y-93980000D03*
G04 #@! TO.P,J3,10*
G04 #@! TO.N,Net-(J3-Pad10)*
X137160000Y-91440000D03*
G04 #@! TO.P,J3,11*
G04 #@! TO.N,Net-(J3-Pad11)*
X139700000Y-93980000D03*
G04 #@! TO.P,J3,12*
G04 #@! TO.N,Net-(J3-Pad12)*
X139700000Y-91440000D03*
G04 #@! TO.P,J3,13*
G04 #@! TO.N,Net-(J3-Pad13)*
X142240000Y-93980000D03*
G04 #@! TO.P,J3,14*
G04 #@! TO.N,Net-(J3-Pad14)*
X142240000Y-91440000D03*
G04 #@! TO.P,J3,15*
G04 #@! TO.N,Net-(J3-Pad15)*
X144780000Y-93980000D03*
G04 #@! TO.P,J3,16*
G04 #@! TO.N,Net-(J3-Pad16)*
X144780000Y-91440000D03*
G04 #@! TO.P,J3,17*
G04 #@! TO.N,Net-(J3-Pad17)*
X147320000Y-93980000D03*
G04 #@! TO.P,J3,18*
G04 #@! TO.N,Net-(J3-Pad18)*
X147320000Y-91440000D03*
G04 #@! TO.P,J3,19*
G04 #@! TO.N,Net-(J3-Pad19)*
X149860000Y-93980000D03*
G04 #@! TO.P,J3,20*
G04 #@! TO.N,Net-(J3-Pad20)*
X149860000Y-91440000D03*
G04 #@! TO.P,J3,21*
G04 #@! TO.N,Net-(J3-Pad21)*
X152400000Y-93980000D03*
G04 #@! TO.P,J3,22*
G04 #@! TO.N,Net-(J3-Pad22)*
X152400000Y-91440000D03*
G04 #@! TO.P,J3,23*
G04 #@! TO.N,Net-(J3-Pad23)*
X154940000Y-93980000D03*
G04 #@! TO.P,J3,24*
G04 #@! TO.N,Net-(J3-Pad24)*
X154940000Y-91440000D03*
G04 #@! TO.P,J3,25*
G04 #@! TO.N,Net-(J3-Pad25)*
X157480000Y-93980000D03*
G04 #@! TO.P,J3,26*
G04 #@! TO.N,Net-(J3-Pad26)*
X157480000Y-91440000D03*
G04 #@! TO.P,J3,27*
G04 #@! TO.N,Net-(J3-Pad27)*
X160020000Y-93980000D03*
G04 #@! TO.P,J3,28*
G04 #@! TO.N,Net-(J3-Pad28)*
X160020000Y-91440000D03*
G04 #@! TO.P,J3,29*
G04 #@! TO.N,Net-(J3-Pad29)*
X162560000Y-93980000D03*
G04 #@! TO.P,J3,30*
G04 #@! TO.N,Net-(J3-Pad30)*
X162560000Y-91440000D03*
G04 #@! TO.P,J3,31*
G04 #@! TO.N,Net-(J3-Pad31)*
X165100000Y-93980000D03*
G04 #@! TO.P,J3,32*
G04 #@! TO.N,Net-(J3-Pad32)*
X165100000Y-91440000D03*
G04 #@! TO.P,J3,33*
G04 #@! TO.N,Net-(J3-Pad33)*
X167640000Y-93980000D03*
G04 #@! TO.P,J3,34*
G04 #@! TO.N,Net-(J3-Pad34)*
X167640000Y-91440000D03*
G04 #@! TO.P,J3,35*
G04 #@! TO.N,Net-(J3-Pad35)*
X170180000Y-93980000D03*
G04 #@! TO.P,J3,36*
G04 #@! TO.N,Net-(J3-Pad36)*
X170180000Y-91440000D03*
G04 #@! TD*
G04 #@! TO.P,J4,36*
G04 #@! TO.N,Net-(J3-Pad36)*
X170180000Y-96520000D03*
G04 #@! TO.P,J4,35*
G04 #@! TO.N,Net-(J3-Pad35)*
X170180000Y-99060000D03*
G04 #@! TO.P,J4,34*
G04 #@! TO.N,Net-(J3-Pad34)*
X167640000Y-96520000D03*
G04 #@! TO.P,J4,33*
G04 #@! TO.N,Net-(J3-Pad33)*
X167640000Y-99060000D03*
G04 #@! TO.P,J4,32*
G04 #@! TO.N,Net-(J3-Pad32)*
X165100000Y-96520000D03*
G04 #@! TO.P,J4,31*
G04 #@! TO.N,Net-(J3-Pad31)*
X165100000Y-99060000D03*
G04 #@! TO.P,J4,30*
G04 #@! TO.N,Net-(J3-Pad30)*
X162560000Y-96520000D03*
G04 #@! TO.P,J4,29*
G04 #@! TO.N,Net-(J3-Pad29)*
X162560000Y-99060000D03*
G04 #@! TO.P,J4,28*
G04 #@! TO.N,Net-(J3-Pad28)*
X160020000Y-96520000D03*
G04 #@! TO.P,J4,27*
G04 #@! TO.N,Net-(J3-Pad27)*
X160020000Y-99060000D03*
G04 #@! TO.P,J4,26*
G04 #@! TO.N,Net-(J3-Pad26)*
X157480000Y-96520000D03*
G04 #@! TO.P,J4,25*
G04 #@! TO.N,Net-(J3-Pad25)*
X157480000Y-99060000D03*
G04 #@! TO.P,J4,24*
G04 #@! TO.N,Net-(J3-Pad24)*
X154940000Y-96520000D03*
G04 #@! TO.P,J4,23*
G04 #@! TO.N,Net-(J3-Pad23)*
X154940000Y-99060000D03*
G04 #@! TO.P,J4,22*
G04 #@! TO.N,Net-(J3-Pad22)*
X152400000Y-96520000D03*
G04 #@! TO.P,J4,21*
G04 #@! TO.N,Net-(J3-Pad21)*
X152400000Y-99060000D03*
G04 #@! TO.P,J4,20*
G04 #@! TO.N,Net-(J3-Pad20)*
X149860000Y-96520000D03*
G04 #@! TO.P,J4,19*
G04 #@! TO.N,Net-(J3-Pad19)*
X149860000Y-99060000D03*
G04 #@! TO.P,J4,18*
G04 #@! TO.N,Net-(J3-Pad18)*
X147320000Y-96520000D03*
G04 #@! TO.P,J4,17*
G04 #@! TO.N,Net-(J3-Pad17)*
X147320000Y-99060000D03*
G04 #@! TO.P,J4,16*
G04 #@! TO.N,Net-(J3-Pad16)*
X144780000Y-96520000D03*
G04 #@! TO.P,J4,15*
G04 #@! TO.N,Net-(J3-Pad15)*
X144780000Y-99060000D03*
G04 #@! TO.P,J4,14*
G04 #@! TO.N,Net-(J3-Pad14)*
X142240000Y-96520000D03*
G04 #@! TO.P,J4,13*
G04 #@! TO.N,Net-(J3-Pad13)*
X142240000Y-99060000D03*
G04 #@! TO.P,J4,12*
G04 #@! TO.N,Net-(J3-Pad12)*
X139700000Y-96520000D03*
G04 #@! TO.P,J4,11*
G04 #@! TO.N,Net-(J3-Pad11)*
X139700000Y-99060000D03*
G04 #@! TO.P,J4,10*
G04 #@! TO.N,Net-(J3-Pad10)*
X137160000Y-96520000D03*
G04 #@! TO.P,J4,9*
G04 #@! TO.N,Net-(J3-Pad9)*
X137160000Y-99060000D03*
G04 #@! TO.P,J4,8*
G04 #@! TO.N,Net-(J3-Pad8)*
X134620000Y-96520000D03*
G04 #@! TO.P,J4,7*
G04 #@! TO.N,Net-(J3-Pad7)*
X134620000Y-99060000D03*
G04 #@! TO.P,J4,6*
G04 #@! TO.N,Net-(J3-Pad6)*
X132080000Y-96520000D03*
G04 #@! TO.P,J4,5*
G04 #@! TO.N,Net-(J3-Pad5)*
X132080000Y-99060000D03*
G04 #@! TO.P,J4,4*
G04 #@! TO.N,Net-(J3-Pad4)*
X129540000Y-96520000D03*
G04 #@! TO.P,J4,3*
G04 #@! TO.N,Net-(J3-Pad3)*
X129540000Y-99060000D03*
G04 #@! TO.P,J4,2*
G04 #@! TO.N,Net-(J3-Pad2)*
X127000000Y-96520000D03*
G04 #@! TO.P,J4,1*
G04 #@! TO.N,Net-(J3-Pad1)*
X127000000Y-99060000D03*
G04 #@! TD*
G04 #@! TO.P,J5,4*
G04 #@! TO.N,Net-(J5-Pad4)*
X139700000Y-109220000D03*
G04 #@! TO.P,J5,3*
G04 #@! TO.N,Net-(J5-Pad3)*
X139700000Y-106680000D03*
G04 #@! TO.P,J5,2*
G04 #@! TO.N,Net-(J5-Pad2)*
X139700000Y-104140000D03*
G04 #@! TO.P,J5,1*
G04 #@! TO.N,Net-(J5-Pad1)*
X139700000Y-101600000D03*
G04 #@! TD*
G04 #@! TO.P,J6,4*
G04 #@! TO.N,Net-(J6-Pad4)*
X142240000Y-109220000D03*
G04 #@! TO.P,J6,3*
G04 #@! TO.N,Net-(J6-Pad3)*
X142240000Y-106680000D03*
G04 #@! TO.P,J6,2*
G04 #@! TO.N,Net-(J6-Pad2)*
X142240000Y-104140000D03*
G04 #@! TO.P,J6,1*
G04 #@! TO.N,Net-(J6-Pad1)*
X142240000Y-101600000D03*
G04 #@! TD*
G04 #@! TO.P,J7,1*
G04 #@! TO.N,Net-(J7-Pad1)*
X144780000Y-101600000D03*
G04 #@! TO.P,J7,2*
G04 #@! TO.N,Net-(J7-Pad2)*
X144780000Y-104140000D03*
G04 #@! TO.P,J7,3*
G04 #@! TO.N,Net-(J7-Pad3)*
X144780000Y-106680000D03*
G04 #@! TO.P,J7,4*
G04 #@! TO.N,Net-(J7-Pad4)*
X144780000Y-109220000D03*
G04 #@! TD*
G04 #@! TO.P,J8,1*
G04 #@! TO.N,Net-(J8-Pad1)*
X147320000Y-101600000D03*
G04 #@! TO.P,J8,2*
G04 #@! TO.N,Net-(J8-Pad2)*
X147320000Y-104140000D03*
G04 #@! TO.P,J8,3*
G04 #@! TO.N,Net-(J8-Pad3)*
X147320000Y-106680000D03*
G04 #@! TO.P,J8,4*
G04 #@! TO.N,Net-(J8-Pad4)*
X147320000Y-109220000D03*
G04 #@! TD*
G04 #@! TO.P,J9,4*
G04 #@! TO.N,Net-(J9-Pad4)*
X149860000Y-109220000D03*
G04 #@! TO.P,J9,3*
G04 #@! TO.N,Net-(J9-Pad3)*
X149860000Y-106680000D03*
G04 #@! TO.P,J9,2*
G04 #@! TO.N,Net-(J9-Pad2)*
X149860000Y-104140000D03*
G04 #@! TO.P,J9,1*
G04 #@! TO.N,Net-(J9-Pad1)*
X149860000Y-101600000D03*
G04 #@! TD*
G04 #@! TO.P,J10,1*
G04 #@! TO.N,Net-(J10-Pad1)*
X152400000Y-101600000D03*
G04 #@! TO.P,J10,2*
G04 #@! TO.N,Net-(J10-Pad2)*
X152400000Y-104140000D03*
G04 #@! TO.P,J10,3*
G04 #@! TO.N,Net-(J10-Pad3)*
X152400000Y-106680000D03*
G04 #@! TO.P,J10,4*
G04 #@! TO.N,Net-(J10-Pad4)*
X152400000Y-109220000D03*
G04 #@! TD*
G04 #@! TO.P,J11,4*
G04 #@! TO.N,Net-(J11-Pad4)*
X127000000Y-109220000D03*
G04 #@! TO.P,J11,3*
G04 #@! TO.N,Net-(J11-Pad3)*
X127000000Y-106680000D03*
G04 #@! TO.P,J11,2*
G04 #@! TO.N,Net-(J11-Pad2)*
X127000000Y-104140000D03*
G04 #@! TO.P,J11,1*
G04 #@! TO.N,Net-(J11-Pad1)*
X127000000Y-101600000D03*
G04 #@! TD*
G04 #@! TO.P,J12,1*
G04 #@! TO.N,Net-(J12-Pad1)*
X157480000Y-101600000D03*
G04 #@! TO.P,J12,2*
G04 #@! TO.N,Net-(J12-Pad2)*
X157480000Y-104140000D03*
G04 #@! TO.P,J12,3*
G04 #@! TO.N,Net-(J12-Pad3)*
X157480000Y-106680000D03*
G04 #@! TO.P,J12,4*
G04 #@! TO.N,Net-(J12-Pad4)*
X157480000Y-109220000D03*
G04 #@! TD*
G04 #@! TO.P,J13,4*
G04 #@! TO.N,Net-(J13-Pad4)*
X160020000Y-109220000D03*
G04 #@! TO.P,J13,3*
G04 #@! TO.N,Net-(J13-Pad3)*
X160020000Y-106680000D03*
G04 #@! TO.P,J13,2*
G04 #@! TO.N,Net-(J13-Pad2)*
X160020000Y-104140000D03*
G04 #@! TO.P,J13,1*
G04 #@! TO.N,Net-(J13-Pad1)*
X160020000Y-101600000D03*
G04 #@! TD*
G04 #@! TO.P,J14,1*
G04 #@! TO.N,Net-(J14-Pad1)*
X162560000Y-101600000D03*
G04 #@! TO.P,J14,2*
G04 #@! TO.N,Net-(J14-Pad2)*
X162560000Y-104140000D03*
G04 #@! TO.P,J14,3*
G04 #@! TO.N,Net-(J14-Pad3)*
X162560000Y-106680000D03*
G04 #@! TO.P,J14,4*
G04 #@! TO.N,Net-(J14-Pad4)*
X162560000Y-109220000D03*
G04 #@! TD*
G04 #@! TO.P,J15,4*
G04 #@! TO.N,Net-(J15-Pad4)*
X165100000Y-109220000D03*
G04 #@! TO.P,J15,3*
G04 #@! TO.N,Net-(J15-Pad3)*
X165100000Y-106680000D03*
G04 #@! TO.P,J15,2*
G04 #@! TO.N,Net-(J15-Pad2)*
X165100000Y-104140000D03*
G04 #@! TO.P,J15,1*
G04 #@! TO.N,Net-(J15-Pad1)*
X165100000Y-101600000D03*
G04 #@! TD*
G04 #@! TO.P,J16,1*
G04 #@! TO.N,Net-(J16-Pad1)*
X167640000Y-101600000D03*
G04 #@! TO.P,J16,2*
G04 #@! TO.N,Net-(J16-Pad2)*
X167640000Y-104140000D03*
G04 #@! TO.P,J16,3*
G04 #@! TO.N,Net-(J16-Pad3)*
X167640000Y-106680000D03*
G04 #@! TO.P,J16,4*
G04 #@! TO.N,Net-(J16-Pad4)*
X167640000Y-109220000D03*
G04 #@! TD*
G04 #@! TO.P,J17,4*
G04 #@! TO.N,Net-(J17-Pad4)*
X170180000Y-109220000D03*
G04 #@! TO.P,J17,3*
G04 #@! TO.N,Net-(J17-Pad3)*
X170180000Y-106680000D03*
G04 #@! TO.P,J17,2*
G04 #@! TO.N,Net-(J17-Pad2)*
X170180000Y-104140000D03*
G04 #@! TO.P,J17,1*
G04 #@! TO.N,Net-(J17-Pad1)*
X170180000Y-101600000D03*
G04 #@! TD*
G04 #@! TO.P,J20,1*
G04 #@! TO.N,Net-(J20-Pad1)*
X129540000Y-101600000D03*
G04 #@! TO.P,J20,2*
G04 #@! TO.N,Net-(J20-Pad2)*
X129540000Y-104140000D03*
G04 #@! TO.P,J20,3*
G04 #@! TO.N,Net-(J20-Pad3)*
X129540000Y-106680000D03*
G04 #@! TO.P,J20,4*
G04 #@! TO.N,Net-(J20-Pad4)*
X129540000Y-109220000D03*
G04 #@! TD*
G04 #@! TO.P,J21,4*
G04 #@! TO.N,Net-(J21-Pad4)*
X154940000Y-109220000D03*
G04 #@! TO.P,J21,3*
G04 #@! TO.N,Net-(J21-Pad3)*
X154940000Y-106680000D03*
G04 #@! TO.P,J21,2*
G04 #@! TO.N,Net-(J21-Pad2)*
X154940000Y-104140000D03*
G04 #@! TO.P,J21,1*
G04 #@! TO.N,Net-(J21-Pad1)*
X154940000Y-101600000D03*
G04 #@! TD*
G04 #@! TO.P,J22,1*
G04 #@! TO.N,Net-(J22-Pad1)*
X137160000Y-101600000D03*
G04 #@! TO.P,J22,2*
G04 #@! TO.N,Net-(J22-Pad2)*
X137160000Y-104140000D03*
G04 #@! TO.P,J22,3*
G04 #@! TO.N,Net-(J22-Pad3)*
X137160000Y-106680000D03*
G04 #@! TO.P,J22,4*
G04 #@! TO.N,Net-(J22-Pad4)*
X137160000Y-109220000D03*
G04 #@! TD*
G04 #@! TO.P,J23,4*
G04 #@! TO.N,Net-(J23-Pad1)*
X124460000Y-109220000D03*
G04 #@! TO.P,J23,3*
X124460000Y-106680000D03*
G04 #@! TO.P,J23,2*
X124460000Y-104140000D03*
G04 #@! TO.P,J23,1*
X124460000Y-101600000D03*
G04 #@! TD*
G04 #@! TO.P,J24,1*
G04 #@! TO.N,Net-(J24-Pad1)*
X172720000Y-101600000D03*
G04 #@! TO.P,J24,2*
X172720000Y-104140000D03*
G04 #@! TO.P,J24,3*
X172720000Y-106680000D03*
G04 #@! TO.P,J24,4*
X172720000Y-109220000D03*
G04 #@! TD*
G04 #@! TO.P,J18,4*
G04 #@! TO.N,Net-(J18-Pad4)*
X132080000Y-109220000D03*
G04 #@! TO.P,J18,3*
G04 #@! TO.N,Net-(J18-Pad3)*
X132080000Y-106680000D03*
G04 #@! TO.P,J18,2*
G04 #@! TO.N,Net-(J18-Pad2)*
X132080000Y-104140000D03*
G04 #@! TO.P,J18,1*
G04 #@! TO.N,Net-(J18-Pad1)*
X132080000Y-101600000D03*
G04 #@! TD*
G04 #@! TO.P,J19,1*
G04 #@! TO.N,Net-(J19-Pad1)*
X134620000Y-101600000D03*
G04 #@! TO.P,J19,2*
G04 #@! TO.N,Net-(J19-Pad2)*
X134620000Y-104140000D03*
G04 #@! TO.P,J19,3*
G04 #@! TO.N,Net-(J19-Pad3)*
X134620000Y-106680000D03*
G04 #@! TO.P,J19,4*
G04 #@! TO.N,Net-(J19-Pad4)*
X134620000Y-109220000D03*
G04 #@! TD*
G04 #@! TO.P,J25,1*
G04 #@! TO.N,Net-(J24-Pad1)*
X172720000Y-99060000D03*
G04 #@! TO.P,J25,2*
X172720000Y-96520000D03*
G04 #@! TD*
G04 #@! TO.P,J26,2*
G04 #@! TO.N,Net-(J24-Pad1)*
X172720000Y-111760000D03*
G04 #@! TO.P,J26,1*
X172720000Y-114300000D03*
G04 #@! TD*
G04 #@! TO.P,J27,1*
G04 #@! TO.N,Net-(J23-Pad1)*
X124460000Y-99060000D03*
G04 #@! TO.P,J27,2*
X124460000Y-96520000D03*
G04 #@! TD*
G04 #@! TO.P,J28,2*
G04 #@! TO.N,Net-(J23-Pad1)*
X124460000Y-111760000D03*
G04 #@! TO.P,J28,1*
X124460000Y-114300000D03*
G04 #@! TD*
G04 #@! TO.P,J29,1*
G04 #@! TO.N,Net-(J23-Pad1)*
X124460000Y-93980000D03*
G04 #@! TD*
G04 #@! TO.P,J30,1*
G04 #@! TO.N,Net-(J23-Pad1)*
X124460000Y-116840000D03*
G04 #@! TD*
G04 #@! TO.P,J31,1*
G04 #@! TO.N,Net-(J24-Pad1)*
X172720000Y-93980000D03*
G04 #@! TD*
G04 #@! TO.P,J32,1*
G04 #@! TO.N,Net-(J24-Pad1)*
X172720000Y-116840000D03*
G04 #@! TD*
D11*
G04 #@! TO.N,Net-(J1-Pad1)*
X127761999Y-118618001D02*
X127000000Y-119380000D01*
X127887001Y-118492999D02*
X127761999Y-118618001D01*
X127887001Y-115187001D02*
X127887001Y-118492999D01*
X127000000Y-114300000D02*
X127887001Y-115187001D01*
G04 #@! TO.N,Net-(J1-Pad2)*
X126238001Y-116078001D02*
X127000000Y-116840000D01*
X126112999Y-115952999D02*
X126238001Y-116078001D01*
X126112999Y-113724631D02*
X126112999Y-115952999D01*
X127000000Y-112837630D02*
X126112999Y-113724631D01*
X127000000Y-111760000D02*
X127000000Y-112837630D01*
G04 #@! TO.N,Net-(J1-Pad3)*
X130301999Y-118618001D02*
X129540000Y-119380000D01*
X130427001Y-118492999D02*
X130301999Y-118618001D01*
X130427001Y-116264631D02*
X130427001Y-118492999D01*
X129540000Y-115377630D02*
X130427001Y-116264631D01*
X129540000Y-114300000D02*
X129540000Y-115377630D01*
G04 #@! TO.N,Net-(J1-Pad4)*
X128778001Y-116078001D02*
X129540000Y-116840000D01*
X128652999Y-115952999D02*
X128778001Y-116078001D01*
X128652999Y-112647001D02*
X128652999Y-115952999D01*
X129540000Y-111760000D02*
X128652999Y-112647001D01*
G04 #@! TO.N,Net-(J1-Pad5)*
X132080000Y-114300000D02*
X132080000Y-115377630D01*
X132841999Y-118618001D02*
X132080000Y-119380000D01*
X132967001Y-118492999D02*
X132841999Y-118618001D01*
X132967001Y-116264631D02*
X132967001Y-118492999D01*
X132080000Y-115377630D02*
X132967001Y-116264631D01*
G04 #@! TO.N,Net-(J1-Pad6)*
X131318001Y-116078001D02*
X132080000Y-116840000D01*
X131192999Y-115952999D02*
X131318001Y-116078001D01*
X131192999Y-112647001D02*
X131192999Y-115952999D01*
X132080000Y-111760000D02*
X131192999Y-112647001D01*
G04 #@! TO.N,Net-(J1-Pad7)*
X135381999Y-118618001D02*
X134620000Y-119380000D01*
X135507001Y-118492999D02*
X135381999Y-118618001D01*
X135507001Y-115187001D02*
X135507001Y-118492999D01*
X134620000Y-114300000D02*
X135507001Y-115187001D01*
G04 #@! TO.N,Net-(J1-Pad8)*
X133858001Y-116078001D02*
X134620000Y-116840000D01*
X133732999Y-115952999D02*
X133858001Y-116078001D01*
X133732999Y-112647001D02*
X133732999Y-115952999D01*
X134620000Y-111760000D02*
X133732999Y-112647001D01*
G04 #@! TO.N,Net-(J1-Pad9)*
X137921999Y-118618001D02*
X137160000Y-119380000D01*
X138047001Y-118492999D02*
X137921999Y-118618001D01*
X138047001Y-116264631D02*
X138047001Y-118492999D01*
X137160000Y-115377630D02*
X138047001Y-116264631D01*
X137160000Y-114300000D02*
X137160000Y-115377630D01*
G04 #@! TO.N,Net-(J1-Pad10)*
X136398001Y-116078001D02*
X137160000Y-116840000D01*
X136272999Y-115952999D02*
X136398001Y-116078001D01*
X136272999Y-112647001D02*
X136272999Y-115952999D01*
X137160000Y-111760000D02*
X136272999Y-112647001D01*
G04 #@! TO.N,Net-(J1-Pad11)*
X140461999Y-118618001D02*
X139700000Y-119380000D01*
X140587001Y-118492999D02*
X140461999Y-118618001D01*
X140587001Y-116264631D02*
X140587001Y-118492999D01*
X139700000Y-115377630D02*
X140587001Y-116264631D01*
X139700000Y-114300000D02*
X139700000Y-115377630D01*
G04 #@! TO.N,Net-(J1-Pad12)*
X138938001Y-116078001D02*
X139700000Y-116840000D01*
X138812999Y-115952999D02*
X138938001Y-116078001D01*
X138812999Y-112647001D02*
X138812999Y-115952999D01*
X139700000Y-111760000D02*
X138812999Y-112647001D01*
G04 #@! TO.N,Net-(J1-Pad13)*
X143001999Y-118618001D02*
X142240000Y-119380000D01*
X143127001Y-118492999D02*
X143001999Y-118618001D01*
X143127001Y-116264631D02*
X143127001Y-118492999D01*
X142240000Y-115377630D02*
X143127001Y-116264631D01*
X142240000Y-114300000D02*
X142240000Y-115377630D01*
G04 #@! TO.N,Net-(J1-Pad14)*
X141478001Y-116078001D02*
X142240000Y-116840000D01*
X141352999Y-115952999D02*
X141478001Y-116078001D01*
X141352999Y-112647001D02*
X141352999Y-115952999D01*
X142240000Y-111760000D02*
X141352999Y-112647001D01*
G04 #@! TO.N,Net-(J1-Pad15)*
X145541999Y-118618001D02*
X144780000Y-119380000D01*
X145667001Y-118492999D02*
X145541999Y-118618001D01*
X145667001Y-116264631D02*
X145667001Y-118492999D01*
X144780000Y-115377630D02*
X145667001Y-116264631D01*
X144780000Y-114300000D02*
X144780000Y-115377630D01*
G04 #@! TO.N,Net-(J1-Pad16)*
X144018001Y-116078001D02*
X144780000Y-116840000D01*
X143892999Y-115952999D02*
X144018001Y-116078001D01*
X143892999Y-112647001D02*
X143892999Y-115952999D01*
X144780000Y-111760000D02*
X143892999Y-112647001D01*
G04 #@! TO.N,Net-(J1-Pad17)*
X148081999Y-118618001D02*
X147320000Y-119380000D01*
X148207001Y-118492999D02*
X148081999Y-118618001D01*
X148207001Y-116264631D02*
X148207001Y-118492999D01*
X147320000Y-115377630D02*
X148207001Y-116264631D01*
X147320000Y-114300000D02*
X147320000Y-115377630D01*
G04 #@! TO.N,Net-(J1-Pad18)*
X146558001Y-116078001D02*
X147320000Y-116840000D01*
X146432999Y-115952999D02*
X146558001Y-116078001D01*
X146432999Y-112647001D02*
X146432999Y-115952999D01*
X147320000Y-111760000D02*
X146432999Y-112647001D01*
G04 #@! TO.N,Net-(J1-Pad19)*
X150621999Y-118618001D02*
X149860000Y-119380000D01*
X150747001Y-118492999D02*
X150621999Y-118618001D01*
X150747001Y-116264631D02*
X150747001Y-118492999D01*
X149860000Y-115377630D02*
X150747001Y-116264631D01*
X149860000Y-114300000D02*
X149860000Y-115377630D01*
G04 #@! TO.N,Net-(J1-Pad20)*
X149098001Y-116078001D02*
X149860000Y-116840000D01*
X148972999Y-115952999D02*
X149098001Y-116078001D01*
X148972999Y-112647001D02*
X148972999Y-115952999D01*
X149860000Y-111760000D02*
X148972999Y-112647001D01*
G04 #@! TO.N,Net-(J1-Pad21)*
X153161999Y-118618001D02*
X152400000Y-119380000D01*
X153287001Y-118492999D02*
X153161999Y-118618001D01*
X153287001Y-116264631D02*
X153287001Y-118492999D01*
X152400000Y-115377630D02*
X153287001Y-116264631D01*
X152400000Y-114300000D02*
X152400000Y-115377630D01*
G04 #@! TO.N,Net-(J1-Pad22)*
X151638001Y-116078001D02*
X152400000Y-116840000D01*
X151512999Y-115952999D02*
X151638001Y-116078001D01*
X151512999Y-112647001D02*
X151512999Y-115952999D01*
X152400000Y-111760000D02*
X151512999Y-112647001D01*
G04 #@! TO.N,Net-(J1-Pad23)*
X155701999Y-118618001D02*
X154940000Y-119380000D01*
X155827001Y-118492999D02*
X155701999Y-118618001D01*
X155827001Y-115187001D02*
X155827001Y-118492999D01*
X154940000Y-114300000D02*
X155827001Y-115187001D01*
G04 #@! TO.N,Net-(J1-Pad24)*
X154178001Y-116078001D02*
X154940000Y-116840000D01*
X154052999Y-115952999D02*
X154178001Y-116078001D01*
X154052999Y-112647001D02*
X154052999Y-115952999D01*
X154940000Y-111760000D02*
X154052999Y-112647001D01*
G04 #@! TO.N,Net-(J1-Pad25)*
X157480000Y-114300000D02*
X157480000Y-115377630D01*
X157480000Y-115377630D02*
X158367001Y-116264631D01*
X158367001Y-118492999D02*
X157480000Y-119380000D01*
X158367001Y-116264631D02*
X158367001Y-118492999D01*
G04 #@! TO.N,Net-(J1-Pad26)*
X156718001Y-116078001D02*
X157480000Y-116840000D01*
X156592999Y-115952999D02*
X156718001Y-116078001D01*
X156592999Y-112647001D02*
X156592999Y-115952999D01*
X157480000Y-111760000D02*
X156592999Y-112647001D01*
G04 #@! TO.N,Net-(J1-Pad27)*
X160781999Y-118618001D02*
X160020000Y-119380000D01*
X160907001Y-118492999D02*
X160781999Y-118618001D01*
X160907001Y-115187001D02*
X160907001Y-118492999D01*
X160020000Y-114300000D02*
X160907001Y-115187001D01*
G04 #@! TO.N,Net-(J1-Pad28)*
X159258001Y-116078001D02*
X160020000Y-116840000D01*
X159132999Y-115952999D02*
X159258001Y-116078001D01*
X159132999Y-113724631D02*
X159132999Y-115952999D01*
X160020000Y-112837630D02*
X159132999Y-113724631D01*
X160020000Y-111760000D02*
X160020000Y-112837630D01*
G04 #@! TO.N,Net-(J1-Pad29)*
X163321999Y-118618001D02*
X162560000Y-119380000D01*
X163447001Y-118492999D02*
X163321999Y-118618001D01*
X163447001Y-116264631D02*
X163447001Y-118492999D01*
X162560000Y-115377630D02*
X163447001Y-116264631D01*
X162560000Y-114300000D02*
X162560000Y-115377630D01*
G04 #@! TO.N,Net-(J1-Pad30)*
X161798001Y-116078001D02*
X162560000Y-116840000D01*
X161672999Y-115952999D02*
X161798001Y-116078001D01*
X161672999Y-113724631D02*
X161672999Y-115952999D01*
X162560000Y-112837630D02*
X161672999Y-113724631D01*
X162560000Y-111760000D02*
X162560000Y-112837630D01*
G04 #@! TO.N,Net-(J1-Pad31)*
X165861999Y-118618001D02*
X165100000Y-119380000D01*
X165987001Y-118492999D02*
X165861999Y-118618001D01*
X165987001Y-116264631D02*
X165987001Y-118492999D01*
X165100000Y-115377630D02*
X165987001Y-116264631D01*
X165100000Y-114300000D02*
X165100000Y-115377630D01*
G04 #@! TO.N,Net-(J1-Pad32)*
X165100000Y-111760000D02*
X165100000Y-112837630D01*
X165100000Y-112837630D02*
X164212999Y-113724631D01*
X164212999Y-115952999D02*
X165100000Y-116840000D01*
X164212999Y-113724631D02*
X164212999Y-115952999D01*
G04 #@! TO.N,Net-(J1-Pad33)*
X168401999Y-118618001D02*
X167640000Y-119380000D01*
X168527001Y-118492999D02*
X168401999Y-118618001D01*
X168527001Y-115187001D02*
X168527001Y-118492999D01*
X167640000Y-114300000D02*
X168527001Y-115187001D01*
G04 #@! TO.N,Net-(J1-Pad34)*
X166878001Y-116078001D02*
X167640000Y-116840000D01*
X166752999Y-115952999D02*
X166878001Y-116078001D01*
X166752999Y-112647001D02*
X166752999Y-115952999D01*
X167640000Y-111760000D02*
X166752999Y-112647001D01*
G04 #@! TO.N,Net-(J1-Pad35)*
X170941999Y-118618001D02*
X170180000Y-119380000D01*
X171067001Y-118492999D02*
X170941999Y-118618001D01*
X171067001Y-116264631D02*
X171067001Y-118492999D01*
X170180000Y-115377630D02*
X171067001Y-116264631D01*
X170180000Y-114300000D02*
X170180000Y-115377630D01*
G04 #@! TO.N,Net-(J1-Pad36)*
X169418001Y-116078001D02*
X170180000Y-116840000D01*
X169292999Y-115952999D02*
X169418001Y-116078001D01*
X169292999Y-112647001D02*
X169292999Y-115952999D01*
X170180000Y-111760000D02*
X169292999Y-112647001D01*
G04 #@! TO.N,Net-(J3-Pad1)*
X127761999Y-98298001D02*
X127000000Y-99060000D01*
X127887001Y-98172999D02*
X127761999Y-98298001D01*
X127887001Y-95944631D02*
X127887001Y-98172999D01*
X127000000Y-95057630D02*
X127887001Y-95944631D01*
X127000000Y-93980000D02*
X127000000Y-95057630D01*
G04 #@! TO.N,Net-(J3-Pad2)*
X126238001Y-95758001D02*
X127000000Y-96520000D01*
X126112999Y-95632999D02*
X126238001Y-95758001D01*
X126112999Y-93404631D02*
X126112999Y-95632999D01*
X127000000Y-92517630D02*
X126112999Y-93404631D01*
X127000000Y-91440000D02*
X127000000Y-92517630D01*
G04 #@! TO.N,Net-(J3-Pad3)*
X130301999Y-98298001D02*
X129540000Y-99060000D01*
X130427001Y-98172999D02*
X130301999Y-98298001D01*
X130427001Y-95944631D02*
X130427001Y-98172999D01*
X129540000Y-95057630D02*
X130427001Y-95944631D01*
X129540000Y-93980000D02*
X129540000Y-95057630D01*
G04 #@! TO.N,Net-(J3-Pad4)*
X128778001Y-95758001D02*
X129540000Y-96520000D01*
X128652999Y-95632999D02*
X128778001Y-95758001D01*
X128652999Y-92327001D02*
X128652999Y-95632999D01*
X129540000Y-91440000D02*
X128652999Y-92327001D01*
G04 #@! TO.N,Net-(J3-Pad5)*
X132967001Y-98172999D02*
X132080000Y-99060000D01*
X132967001Y-95944631D02*
X132967001Y-98172999D01*
X132080000Y-93980000D02*
X132080000Y-95057630D01*
X132080000Y-95057630D02*
X132967001Y-95944631D01*
G04 #@! TO.N,Net-(J3-Pad6)*
X131318001Y-95758001D02*
X132080000Y-96520000D01*
X131192999Y-95632999D02*
X131318001Y-95758001D01*
X131192999Y-93404631D02*
X131192999Y-95632999D01*
X132080000Y-92517630D02*
X131192999Y-93404631D01*
X132080000Y-91440000D02*
X132080000Y-92517630D01*
G04 #@! TO.N,Net-(J3-Pad7)*
X135381999Y-98298001D02*
X134620000Y-99060000D01*
X135507001Y-98172999D02*
X135381999Y-98298001D01*
X135507001Y-95944631D02*
X135507001Y-98172999D01*
X134620000Y-95057630D02*
X135507001Y-95944631D01*
X134620000Y-93980000D02*
X134620000Y-95057630D01*
G04 #@! TO.N,Net-(J3-Pad8)*
X133858001Y-95758001D02*
X134620000Y-96520000D01*
X133732999Y-95632999D02*
X133858001Y-95758001D01*
X133732999Y-93404631D02*
X133732999Y-95632999D01*
X134620000Y-92517630D02*
X133732999Y-93404631D01*
X134620000Y-91440000D02*
X134620000Y-92517630D01*
G04 #@! TO.N,Net-(J3-Pad9)*
X137921999Y-98298001D02*
X137160000Y-99060000D01*
X138047001Y-98172999D02*
X137921999Y-98298001D01*
X138047001Y-94867001D02*
X138047001Y-98172999D01*
X137160000Y-93980000D02*
X138047001Y-94867001D01*
G04 #@! TO.N,Net-(J3-Pad10)*
X136398001Y-95758001D02*
X137160000Y-96520000D01*
X136272999Y-95632999D02*
X136398001Y-95758001D01*
X136272999Y-92327001D02*
X136272999Y-95632999D01*
X137160000Y-91440000D02*
X136272999Y-92327001D01*
G04 #@! TO.N,Net-(J3-Pad11)*
X140461999Y-98298001D02*
X139700000Y-99060000D01*
X140587001Y-98172999D02*
X140461999Y-98298001D01*
X140587001Y-94867001D02*
X140587001Y-98172999D01*
X139700000Y-93980000D02*
X140587001Y-94867001D01*
G04 #@! TO.N,Net-(J3-Pad12)*
X138938001Y-95758001D02*
X139700000Y-96520000D01*
X138812999Y-95632999D02*
X138938001Y-95758001D01*
X138812999Y-92327001D02*
X138812999Y-95632999D01*
X139700000Y-91440000D02*
X138812999Y-92327001D01*
G04 #@! TO.N,Net-(J3-Pad13)*
X143001999Y-98298001D02*
X142240000Y-99060000D01*
X143127001Y-98172999D02*
X143001999Y-98298001D01*
X143127001Y-95944631D02*
X143127001Y-98172999D01*
X142240000Y-95057630D02*
X143127001Y-95944631D01*
X142240000Y-93980000D02*
X142240000Y-95057630D01*
G04 #@! TO.N,Net-(J3-Pad14)*
X141478001Y-95758001D02*
X142240000Y-96520000D01*
X141352999Y-95632999D02*
X141478001Y-95758001D01*
X141352999Y-93404631D02*
X141352999Y-95632999D01*
X142240000Y-92517630D02*
X141352999Y-93404631D01*
X142240000Y-91440000D02*
X142240000Y-92517630D01*
G04 #@! TO.N,Net-(J3-Pad15)*
X145541999Y-98298001D02*
X144780000Y-99060000D01*
X145667001Y-98172999D02*
X145541999Y-98298001D01*
X145667001Y-95944631D02*
X145667001Y-98172999D01*
X144780000Y-95057630D02*
X145667001Y-95944631D01*
X144780000Y-93980000D02*
X144780000Y-95057630D01*
G04 #@! TO.N,Net-(J3-Pad16)*
X144018001Y-95758001D02*
X144780000Y-96520000D01*
X143892999Y-95632999D02*
X144018001Y-95758001D01*
X143892999Y-92327001D02*
X143892999Y-95632999D01*
X144780000Y-91440000D02*
X143892999Y-92327001D01*
G04 #@! TO.N,Net-(J3-Pad17)*
X148081999Y-98298001D02*
X147320000Y-99060000D01*
X148207001Y-98172999D02*
X148081999Y-98298001D01*
X148207001Y-95944631D02*
X148207001Y-98172999D01*
X147320000Y-95057630D02*
X148207001Y-95944631D01*
X147320000Y-93980000D02*
X147320000Y-95057630D01*
G04 #@! TO.N,Net-(J3-Pad18)*
X146558001Y-95758001D02*
X147320000Y-96520000D01*
X146432999Y-95632999D02*
X146558001Y-95758001D01*
X146432999Y-93404631D02*
X146432999Y-95632999D01*
X147320000Y-92517630D02*
X146432999Y-93404631D01*
X147320000Y-91440000D02*
X147320000Y-92517630D01*
G04 #@! TO.N,Net-(J3-Pad19)*
X150621999Y-98298001D02*
X149860000Y-99060000D01*
X150747001Y-98172999D02*
X150621999Y-98298001D01*
X150747001Y-95944631D02*
X150747001Y-98172999D01*
X149860000Y-95057630D02*
X150747001Y-95944631D01*
X149860000Y-93980000D02*
X149860000Y-95057630D01*
G04 #@! TO.N,Net-(J3-Pad20)*
X149098001Y-95758001D02*
X149860000Y-96520000D01*
X148972999Y-95632999D02*
X149098001Y-95758001D01*
X148972999Y-92327001D02*
X148972999Y-95632999D01*
X149860000Y-91440000D02*
X148972999Y-92327001D01*
G04 #@! TO.N,Net-(J3-Pad21)*
X153161999Y-98298001D02*
X152400000Y-99060000D01*
X153287001Y-98172999D02*
X153161999Y-98298001D01*
X153287001Y-94867001D02*
X153287001Y-98172999D01*
X152400000Y-93980000D02*
X153287001Y-94867001D01*
G04 #@! TO.N,Net-(J3-Pad22)*
X151638001Y-95758001D02*
X152400000Y-96520000D01*
X151512999Y-95632999D02*
X151638001Y-95758001D01*
X151512999Y-92327001D02*
X151512999Y-95632999D01*
X152400000Y-91440000D02*
X151512999Y-92327001D01*
G04 #@! TO.N,Net-(J3-Pad23)*
X155701999Y-98298001D02*
X154940000Y-99060000D01*
X155827001Y-98172999D02*
X155701999Y-98298001D01*
X155827001Y-94867001D02*
X155827001Y-98172999D01*
X154940000Y-93980000D02*
X155827001Y-94867001D01*
G04 #@! TO.N,Net-(J3-Pad24)*
X154178001Y-95758001D02*
X154940000Y-96520000D01*
X154052999Y-95632999D02*
X154178001Y-95758001D01*
X154052999Y-93404631D02*
X154052999Y-95632999D01*
X154940000Y-92517630D02*
X154052999Y-93404631D01*
X154940000Y-91440000D02*
X154940000Y-92517630D01*
G04 #@! TO.N,Net-(J3-Pad25)*
X158241999Y-98298001D02*
X157480000Y-99060000D01*
X158367001Y-98172999D02*
X158241999Y-98298001D01*
X158367001Y-94867001D02*
X158367001Y-98172999D01*
X157480000Y-93980000D02*
X158367001Y-94867001D01*
G04 #@! TO.N,Net-(J3-Pad26)*
X156718001Y-95758001D02*
X157480000Y-96520000D01*
X156592999Y-95632999D02*
X156718001Y-95758001D01*
X156592999Y-92327001D02*
X156592999Y-95632999D01*
X157480000Y-91440000D02*
X156592999Y-92327001D01*
G04 #@! TO.N,Net-(J3-Pad27)*
X160781999Y-98298001D02*
X160020000Y-99060000D01*
X160907001Y-98172999D02*
X160781999Y-98298001D01*
X160907001Y-95944631D02*
X160907001Y-98172999D01*
X160020000Y-95057630D02*
X160907001Y-95944631D01*
X160020000Y-93980000D02*
X160020000Y-95057630D01*
G04 #@! TO.N,Net-(J3-Pad28)*
X159258001Y-95758001D02*
X160020000Y-96520000D01*
X159132999Y-95632999D02*
X159258001Y-95758001D01*
X159132999Y-93404631D02*
X159132999Y-95632999D01*
X160020000Y-92517630D02*
X159132999Y-93404631D01*
X160020000Y-91440000D02*
X160020000Y-92517630D01*
G04 #@! TO.N,Net-(J3-Pad29)*
X161798001Y-98298001D02*
X162560000Y-99060000D01*
X161672999Y-98172999D02*
X161798001Y-98298001D01*
X161672999Y-94867001D02*
X161672999Y-98172999D01*
X162560000Y-93980000D02*
X161672999Y-94867001D01*
G04 #@! TO.N,Net-(J3-Pad30)*
X163321999Y-95758001D02*
X162560000Y-96520000D01*
X163447001Y-95632999D02*
X163321999Y-95758001D01*
X163447001Y-93404631D02*
X163447001Y-95632999D01*
X162560000Y-92517630D02*
X163447001Y-93404631D01*
X162560000Y-91440000D02*
X162560000Y-92517630D01*
G04 #@! TO.N,Net-(J3-Pad31)*
X165861999Y-98298001D02*
X165100000Y-99060000D01*
X165987001Y-98172999D02*
X165861999Y-98298001D01*
X165987001Y-94867001D02*
X165987001Y-98172999D01*
X165100000Y-93980000D02*
X165987001Y-94867001D01*
G04 #@! TO.N,Net-(J3-Pad32)*
X164212999Y-95632999D02*
X164338001Y-95758001D01*
X165100000Y-91440000D02*
X164212999Y-92327001D01*
X164212999Y-92327001D02*
X164212999Y-95632999D01*
X164338001Y-95758001D02*
X165100000Y-96520000D01*
G04 #@! TO.N,Net-(J3-Pad33)*
X168401999Y-98298001D02*
X167640000Y-99060000D01*
X168527001Y-98172999D02*
X168401999Y-98298001D01*
X168527001Y-94867001D02*
X168527001Y-98172999D01*
X167640000Y-93980000D02*
X168527001Y-94867001D01*
G04 #@! TO.N,Net-(J3-Pad34)*
X166752999Y-92327001D02*
X167640000Y-91440000D01*
X167640000Y-96520000D02*
X166752999Y-95632999D01*
X166752999Y-95632999D02*
X166752999Y-92327001D01*
G04 #@! TO.N,Net-(J3-Pad35)*
X170180000Y-93980000D02*
X171832999Y-95632999D01*
X171832999Y-95632999D02*
X171832999Y-97407001D01*
X170941999Y-98298001D02*
X170180000Y-99060000D01*
X171832999Y-97407001D02*
X170941999Y-98298001D01*
G04 #@! TO.N,Net-(J3-Pad36)*
X169418001Y-95758001D02*
X170180000Y-96520000D01*
X169292999Y-95632999D02*
X169418001Y-95758001D01*
X169292999Y-92327001D02*
X169292999Y-95632999D01*
X170180000Y-91440000D02*
X169292999Y-92327001D01*
G04 #@! TO.N,Net-(J23-Pad1)*
X124460000Y-96520000D02*
X124460000Y-114300000D01*
X124460000Y-93980000D02*
X124460000Y-96520000D01*
G04 #@! TO.N,Net-(J24-Pad1)*
X172720000Y-114300000D02*
X172720000Y-96520000D01*
X172720000Y-93980000D02*
X172720000Y-96520000D01*
X172720000Y-114300000D02*
X172720000Y-116840000D01*
G04 #@! TD*
M02*
