M48
;DRILL file {KiCad (5.0.2)-1} date 2019/01/14 22:57:53
;FORMAT={-:-/ absolute / inch / decimal}
FMAT,2
INCH,TZ
T1C0.0394
%
G90
G05
T1
X6.396Y-3.782
X6.396Y-3.882
X6.396Y-3.982
X6.396Y-4.082
X6.396Y-4.182
X6.396Y-4.282
X6.396Y-4.382
X6.396Y-4.482
X4.996Y-4.582
X5.096Y-4.582
X5.196Y-4.582
X5.296Y-4.582
X5.396Y-4.582
X5.496Y-4.582
X5.596Y-4.582
X5.696Y-4.582
X5.796Y-4.582
X5.896Y-4.582
X5.996Y-4.582
X6.096Y-4.582
X6.196Y-4.582
X6.296Y-4.582
X6.396Y-4.582
X6.496Y-4.582
X6.596Y-4.582
X6.696Y-4.582
X6.196Y-3.782
X6.196Y-3.882
X6.196Y-3.982
X6.196Y-4.082
X6.196Y-4.182
X6.196Y-4.282
X6.196Y-4.382
X6.196Y-4.482
X5.896Y-3.782
X5.896Y-3.882
X5.896Y-3.982
X5.896Y-4.082
X5.896Y-4.182
X5.896Y-4.282
X5.896Y-4.382
X5.896Y-4.482
X6.496Y-3.782
X6.496Y-3.882
X6.496Y-3.982
X6.496Y-4.082
X6.496Y-4.182
X6.496Y-4.282
X6.496Y-4.382
X6.496Y-4.482
X6.796Y-3.782
X6.796Y-3.882
X6.796Y-3.982
X6.796Y-4.082
X6.796Y-4.182
X6.796Y-4.282
X6.796Y-4.382
X6.796Y-4.482
X6.796Y-4.582
X5.196Y-3.782
X5.196Y-3.882
X5.196Y-3.982
X5.196Y-4.082
X5.196Y-4.182
X5.196Y-4.282
X5.196Y-4.382
X5.196Y-4.482
X4.996Y-3.682
X5.096Y-3.682
X5.196Y-3.682
X5.296Y-3.682
X5.396Y-3.682
X5.496Y-3.682
X5.596Y-3.682
X5.696Y-3.682
X5.796Y-3.682
X5.896Y-3.682
X5.996Y-3.682
X6.096Y-3.682
X6.196Y-3.682
X6.296Y-3.682
X6.396Y-3.682
X6.496Y-3.682
X6.596Y-3.682
X6.696Y-3.682
X4.996Y-3.782
X4.996Y-3.882
X4.996Y-3.982
X4.996Y-4.082
X4.996Y-4.182
X4.996Y-4.282
X4.996Y-4.382
X4.996Y-4.482
X5.596Y-3.782
X5.596Y-3.882
X5.596Y-3.982
X5.596Y-4.082
X5.596Y-4.182
X5.596Y-4.282
X5.596Y-4.382
X5.596Y-4.482
X5.996Y-3.782
X5.996Y-3.882
X5.996Y-3.982
X5.996Y-4.082
X5.996Y-4.182
X5.996Y-4.282
X5.996Y-4.382
X5.996Y-4.482
X4.896Y-3.682
X4.896Y-3.782
X4.896Y-3.882
X4.896Y-3.982
X4.896Y-4.082
X4.896Y-4.182
X4.896Y-4.282
X4.896Y-4.382
X4.896Y-4.482
X4.896Y-4.582
X5.796Y-3.782
X5.796Y-3.882
X5.796Y-3.982
X5.796Y-4.082
X5.796Y-4.182
X5.796Y-4.282
X5.796Y-4.382
X5.796Y-4.482
X6.696Y-3.782
X6.696Y-3.882
X6.696Y-3.982
X6.696Y-4.082
X6.696Y-4.182
X6.696Y-4.282
X6.696Y-4.382
X6.696Y-4.482
X5.296Y-3.782
X5.296Y-3.882
X5.296Y-3.982
X5.296Y-4.082
X5.296Y-4.182
X5.296Y-4.282
X5.296Y-4.382
X5.296Y-4.482
X6.596Y-3.782
X6.596Y-3.882
X6.596Y-3.982
X6.596Y-4.082
X6.596Y-4.182
X6.596Y-4.282
X6.596Y-4.382
X6.596Y-4.482
X6.296Y-3.782
X6.296Y-3.882
X6.296Y-3.982
X6.296Y-4.082
X6.296Y-4.182
X6.296Y-4.282
X6.296Y-4.382
X6.296Y-4.482
X5.396Y-3.782
X5.396Y-3.882
X5.396Y-3.982
X5.396Y-4.082
X5.396Y-4.182
X5.396Y-4.282
X5.396Y-4.382
X5.396Y-4.482
X6.096Y-3.782
X6.096Y-3.882
X6.096Y-3.982
X6.096Y-4.082
X6.096Y-4.182
X6.096Y-4.282
X6.096Y-4.382
X6.096Y-4.482
X4.996Y-4.682
X5.096Y-4.682
X5.196Y-4.682
X5.296Y-4.682
X5.396Y-4.682
X5.496Y-4.682
X5.596Y-4.682
X5.696Y-4.682
X5.796Y-4.682
X5.896Y-4.682
X5.996Y-4.682
X6.096Y-4.682
X6.196Y-4.682
X6.296Y-4.682
X6.396Y-4.682
X6.496Y-4.682
X6.596Y-4.682
X6.696Y-4.682
X4.996Y-3.582
X5.096Y-3.582
X5.196Y-3.582
X5.296Y-3.582
X5.396Y-3.582
X5.496Y-3.582
X5.596Y-3.582
X5.696Y-3.582
X5.796Y-3.582
X5.896Y-3.582
X5.996Y-3.582
X6.096Y-3.582
X6.196Y-3.582
X6.296Y-3.582
X6.396Y-3.582
X6.496Y-3.582
X6.596Y-3.582
X6.696Y-3.582
X5.496Y-3.782
X5.496Y-3.882
X5.496Y-3.982
X5.496Y-4.082
X5.496Y-4.182
X5.496Y-4.282
X5.496Y-4.382
X5.496Y-4.482
X5.696Y-3.782
X5.696Y-3.882
X5.696Y-3.982
X5.696Y-4.082
X5.696Y-4.182
X5.696Y-4.282
X5.696Y-4.382
X5.696Y-4.482
X5.096Y-3.782
X5.096Y-3.882
X5.096Y-3.982
X5.096Y-4.082
X5.096Y-4.182
X5.096Y-4.282
X5.096Y-4.382
X5.096Y-4.482
T0
M30
