G04 #@! TF.GenerationSoftware,KiCad,Pcbnew,(5.0.2)-1*
G04 #@! TF.CreationDate,2019-01-14T22:57:45+09:00*
G04 #@! TF.ProjectId,PocketBeagle,506f636b-6574-4426-9561-676c652e6b69,rev?*
G04 #@! TF.SameCoordinates,Original*
G04 #@! TF.FileFunction,Legend,Top*
G04 #@! TF.FilePolarity,Positive*
%FSLAX46Y46*%
G04 Gerber Fmt 4.6, Leading zero omitted, Abs format (unit mm)*
G04 Created by KiCad (PCBNEW (5.0.2)-1) date 2019/01/14 22:57:45*
%MOMM*%
%LPD*%
G01*
G04 APERTURE LIST*
%ADD10C,0.300000*%
G04 APERTURE END LIST*
D10*
X134085228Y-121612742D02*
X134228085Y-121684171D01*
X134513800Y-121684171D01*
X134656657Y-121612742D01*
X134728085Y-121469885D01*
X134728085Y-121398457D01*
X134656657Y-121255600D01*
X134513800Y-121184171D01*
X134299514Y-121184171D01*
X134156657Y-121112742D01*
X134085228Y-120969885D01*
X134085228Y-120898457D01*
X134156657Y-120755600D01*
X134299514Y-120684171D01*
X134513800Y-120684171D01*
X134656657Y-120755600D01*
X135370942Y-121684171D02*
X135370942Y-120184171D01*
X136013800Y-121684171D02*
X136013800Y-120898457D01*
X135942371Y-120755600D01*
X135799514Y-120684171D01*
X135585228Y-120684171D01*
X135442371Y-120755600D01*
X135370942Y-120827028D01*
X137370942Y-120684171D02*
X137370942Y-121684171D01*
X136728085Y-120684171D02*
X136728085Y-121469885D01*
X136799514Y-121612742D01*
X136942371Y-121684171D01*
X137156657Y-121684171D01*
X137299514Y-121612742D01*
X137370942Y-121541314D01*
X138085228Y-120684171D02*
X138085228Y-121684171D01*
X138085228Y-120827028D02*
X138156657Y-120755600D01*
X138299514Y-120684171D01*
X138513800Y-120684171D01*
X138656657Y-120755600D01*
X138728085Y-120898457D01*
X138728085Y-121684171D01*
X139442371Y-120684171D02*
X139442371Y-121684171D01*
X139442371Y-120827028D02*
X139513800Y-120755600D01*
X139656657Y-120684171D01*
X139870942Y-120684171D01*
X140013800Y-120755600D01*
X140085228Y-120898457D01*
X140085228Y-121684171D01*
X141013800Y-121684171D02*
X140870942Y-121612742D01*
X140799514Y-121541314D01*
X140728085Y-121398457D01*
X140728085Y-120969885D01*
X140799514Y-120827028D01*
X140870942Y-120755600D01*
X141013800Y-120684171D01*
X141228085Y-120684171D01*
X141370942Y-120755600D01*
X141442371Y-120827028D01*
X141513800Y-120969885D01*
X141513800Y-121398457D01*
X141442371Y-121541314D01*
X141370942Y-121612742D01*
X141228085Y-121684171D01*
X141013800Y-121684171D01*
X142085228Y-121612742D02*
X142228085Y-121684171D01*
X142513800Y-121684171D01*
X142656657Y-121612742D01*
X142728085Y-121469885D01*
X142728085Y-121398457D01*
X142656657Y-121255600D01*
X142513800Y-121184171D01*
X142299514Y-121184171D01*
X142156657Y-121112742D01*
X142085228Y-120969885D01*
X142085228Y-120898457D01*
X142156657Y-120755600D01*
X142299514Y-120684171D01*
X142513800Y-120684171D01*
X142656657Y-120755600D01*
X144013800Y-120684171D02*
X144013800Y-121684171D01*
X143370942Y-120684171D02*
X143370942Y-121469885D01*
X143442371Y-121612742D01*
X143585228Y-121684171D01*
X143799514Y-121684171D01*
X143942371Y-121612742D01*
X144013800Y-121541314D01*
X144728085Y-121684171D02*
X144728085Y-120184171D01*
X144870942Y-121112742D02*
X145299514Y-121684171D01*
X145299514Y-120684171D02*
X144728085Y-121255600D01*
X146513800Y-121612742D02*
X146370942Y-121684171D01*
X146085228Y-121684171D01*
X145942371Y-121612742D01*
X145870942Y-121469885D01*
X145870942Y-120898457D01*
X145942371Y-120755600D01*
X146085228Y-120684171D01*
X146370942Y-120684171D01*
X146513800Y-120755600D01*
X146585228Y-120898457D01*
X146585228Y-121041314D01*
X145870942Y-121184171D01*
X149442371Y-120112742D02*
X148156657Y-122041314D01*
X151085228Y-120684171D02*
X151085228Y-122184171D01*
X151085228Y-120755600D02*
X151228085Y-120684171D01*
X151513800Y-120684171D01*
X151656657Y-120755600D01*
X151728085Y-120827028D01*
X151799514Y-120969885D01*
X151799514Y-121398457D01*
X151728085Y-121541314D01*
X151656657Y-121612742D01*
X151513800Y-121684171D01*
X151228085Y-121684171D01*
X151085228Y-121612742D01*
X152656657Y-121684171D02*
X152513800Y-121612742D01*
X152442371Y-121541314D01*
X152370942Y-121398457D01*
X152370942Y-120969885D01*
X152442371Y-120827028D01*
X152513800Y-120755600D01*
X152656657Y-120684171D01*
X152870942Y-120684171D01*
X153013800Y-120755600D01*
X153085228Y-120827028D01*
X153156657Y-120969885D01*
X153156657Y-121398457D01*
X153085228Y-121541314D01*
X153013800Y-121612742D01*
X152870942Y-121684171D01*
X152656657Y-121684171D01*
X154442371Y-121612742D02*
X154299514Y-121684171D01*
X154013800Y-121684171D01*
X153870942Y-121612742D01*
X153799514Y-121541314D01*
X153728085Y-121398457D01*
X153728085Y-120969885D01*
X153799514Y-120827028D01*
X153870942Y-120755600D01*
X154013800Y-120684171D01*
X154299514Y-120684171D01*
X154442371Y-120755600D01*
X155085228Y-121684171D02*
X155085228Y-120184171D01*
X155228085Y-121112742D02*
X155656657Y-121684171D01*
X155656657Y-120684171D02*
X155085228Y-121255600D01*
X156870942Y-121612742D02*
X156728085Y-121684171D01*
X156442371Y-121684171D01*
X156299514Y-121612742D01*
X156228085Y-121469885D01*
X156228085Y-120898457D01*
X156299514Y-120755600D01*
X156442371Y-120684171D01*
X156728085Y-120684171D01*
X156870942Y-120755600D01*
X156942371Y-120898457D01*
X156942371Y-121041314D01*
X156228085Y-121184171D01*
X157370942Y-120684171D02*
X157942371Y-120684171D01*
X157585228Y-120184171D02*
X157585228Y-121469885D01*
X157656657Y-121612742D01*
X157799514Y-121684171D01*
X157942371Y-121684171D01*
X158085228Y-121827028D02*
X159228085Y-121827028D01*
X159585228Y-120684171D02*
X159585228Y-122184171D01*
X159585228Y-120755600D02*
X159728085Y-120684171D01*
X160013800Y-120684171D01*
X160156657Y-120755600D01*
X160228085Y-120827028D01*
X160299514Y-120969885D01*
X160299514Y-121398457D01*
X160228085Y-121541314D01*
X160156657Y-121612742D01*
X160013800Y-121684171D01*
X159728085Y-121684171D01*
X159585228Y-121612742D01*
X161585228Y-121612742D02*
X161442371Y-121684171D01*
X161156657Y-121684171D01*
X161013800Y-121612742D01*
X160942371Y-121541314D01*
X160870942Y-121398457D01*
X160870942Y-120969885D01*
X160942371Y-120827028D01*
X161013800Y-120755600D01*
X161156657Y-120684171D01*
X161442371Y-120684171D01*
X161585228Y-120755600D01*
X162228085Y-121684171D02*
X162228085Y-120184171D01*
X162228085Y-120755600D02*
X162370942Y-120684171D01*
X162656657Y-120684171D01*
X162799514Y-120755600D01*
X162870942Y-120827028D01*
X162942371Y-120969885D01*
X162942371Y-121398457D01*
X162870942Y-121541314D01*
X162799514Y-121612742D01*
X162656657Y-121684171D01*
X162370942Y-121684171D01*
X162228085Y-121612742D01*
M02*
