G04 #@! TF.GenerationSoftware,KiCad,Pcbnew,(5.0.2)-1*
G04 #@! TF.CreationDate,2019-01-14T22:57:45+09:00*
G04 #@! TF.ProjectId,PocketBeagle,506f636b-6574-4426-9561-676c652e6b69,rev?*
G04 #@! TF.SameCoordinates,Original*
G04 #@! TF.FileFunction,Copper,L3,Inr*
G04 #@! TF.FilePolarity,Positive*
%FSLAX46Y46*%
G04 Gerber Fmt 4.6, Leading zero omitted, Abs format (unit mm)*
G04 Created by KiCad (PCBNEW (5.0.2)-1) date 2019/01/14 22:57:45*
%MOMM*%
%LPD*%
G01*
G04 APERTURE LIST*
G04 #@! TA.AperFunction,ViaPad*
%ADD10C,1.700000*%
G04 #@! TD*
G04 #@! TA.AperFunction,ViaPad*
%ADD11O,1.700000X1.700000*%
G04 #@! TD*
G04 #@! TA.AperFunction,ViaPad*
%ADD12R,1.700000X1.700000*%
G04 #@! TD*
G04 APERTURE END LIST*
D10*
G04 #@! TO.N,Net-(J24-Pad1)*
G04 #@! TO.C,J24*
X170078400Y-96062800D03*
D11*
G04 #@! TO.N,Net-(J24-Pad2)*
X170078400Y-98602800D03*
G04 #@! TO.N,Net-(J24-Pad3)*
X170078400Y-101142800D03*
G04 #@! TO.N,Net-(J24-Pad4)*
X170078400Y-103682800D03*
G04 #@! TO.N,Net-(J24-Pad5)*
X170078400Y-106222800D03*
G04 #@! TO.N,Net-(J24-Pad6)*
X170078400Y-108762800D03*
G04 #@! TO.N,Net-(J24-Pad7)*
X170078400Y-111302800D03*
G04 #@! TO.N,Net-(J24-Pad8)*
X170078400Y-113842800D03*
G04 #@! TD*
G04 #@! TO.N,Net-(J23-Pad8)*
G04 #@! TO.C,J23*
X167538400Y-113842800D03*
G04 #@! TO.N,Net-(J23-Pad7)*
X167538400Y-111302800D03*
G04 #@! TO.N,Net-(J23-Pad6)*
X167538400Y-108762800D03*
G04 #@! TO.N,Net-(J23-Pad5)*
X167538400Y-106222800D03*
G04 #@! TO.N,Net-(J23-Pad4)*
X167538400Y-103682800D03*
G04 #@! TO.N,Net-(J23-Pad3)*
X167538400Y-101142800D03*
G04 #@! TO.N,Net-(J23-Pad2)*
X167538400Y-98602800D03*
D10*
G04 #@! TO.N,Net-(J23-Pad1)*
X167538400Y-96062800D03*
G04 #@! TD*
G04 #@! TO.N,Net-(J22-Pad1)*
G04 #@! TO.C,J22*
X164998400Y-96062800D03*
D11*
G04 #@! TO.N,Net-(J22-Pad2)*
X164998400Y-98602800D03*
G04 #@! TO.N,Net-(J22-Pad3)*
X164998400Y-101142800D03*
G04 #@! TO.N,Net-(J22-Pad4)*
X164998400Y-103682800D03*
G04 #@! TO.N,Net-(J22-Pad5)*
X164998400Y-106222800D03*
G04 #@! TO.N,Net-(J22-Pad6)*
X164998400Y-108762800D03*
G04 #@! TO.N,Net-(J22-Pad7)*
X164998400Y-111302800D03*
G04 #@! TO.N,Net-(J22-Pad8)*
X164998400Y-113842800D03*
G04 #@! TD*
G04 #@! TO.N,Net-(J21-Pad8)*
G04 #@! TO.C,J21*
X162458400Y-113842800D03*
G04 #@! TO.N,Net-(J21-Pad7)*
X162458400Y-111302800D03*
G04 #@! TO.N,Net-(J21-Pad6)*
X162458400Y-108762800D03*
G04 #@! TO.N,Net-(J21-Pad5)*
X162458400Y-106222800D03*
G04 #@! TO.N,Net-(J21-Pad4)*
X162458400Y-103682800D03*
G04 #@! TO.N,Net-(J21-Pad3)*
X162458400Y-101142800D03*
G04 #@! TO.N,Net-(J21-Pad2)*
X162458400Y-98602800D03*
D10*
G04 #@! TO.N,Net-(J21-Pad1)*
X162458400Y-96062800D03*
G04 #@! TD*
G04 #@! TO.N,Net-(J20-Pad1)*
G04 #@! TO.C,J20*
X159918400Y-96062800D03*
D11*
G04 #@! TO.N,Net-(J20-Pad2)*
X159918400Y-98602800D03*
G04 #@! TO.N,Net-(J20-Pad3)*
X159918400Y-101142800D03*
G04 #@! TO.N,Net-(J20-Pad4)*
X159918400Y-103682800D03*
G04 #@! TO.N,Net-(J20-Pad5)*
X159918400Y-106222800D03*
G04 #@! TO.N,Net-(J20-Pad6)*
X159918400Y-108762800D03*
G04 #@! TO.N,Net-(J20-Pad7)*
X159918400Y-111302800D03*
G04 #@! TO.N,Net-(J20-Pad8)*
X159918400Y-113842800D03*
G04 #@! TD*
G04 #@! TO.N,Net-(J19-Pad8)*
G04 #@! TO.C,J19*
X157378400Y-113842800D03*
G04 #@! TO.N,Net-(J19-Pad7)*
X157378400Y-111302800D03*
G04 #@! TO.N,Net-(J19-Pad6)*
X157378400Y-108762800D03*
G04 #@! TO.N,Net-(J19-Pad5)*
X157378400Y-106222800D03*
G04 #@! TO.N,Net-(J19-Pad4)*
X157378400Y-103682800D03*
G04 #@! TO.N,Net-(J19-Pad3)*
X157378400Y-101142800D03*
G04 #@! TO.N,Net-(J19-Pad2)*
X157378400Y-98602800D03*
D10*
G04 #@! TO.N,Net-(J19-Pad1)*
X157378400Y-96062800D03*
G04 #@! TD*
G04 #@! TO.N,Net-(J18-Pad1)*
G04 #@! TO.C,J18*
X154838400Y-96062800D03*
D11*
G04 #@! TO.N,Net-(J18-Pad2)*
X154838400Y-98602800D03*
G04 #@! TO.N,Net-(J18-Pad3)*
X154838400Y-101142800D03*
G04 #@! TO.N,Net-(J18-Pad4)*
X154838400Y-103682800D03*
G04 #@! TO.N,Net-(J18-Pad5)*
X154838400Y-106222800D03*
G04 #@! TO.N,Net-(J18-Pad6)*
X154838400Y-108762800D03*
G04 #@! TO.N,Net-(J18-Pad7)*
X154838400Y-111302800D03*
G04 #@! TO.N,Net-(J18-Pad8)*
X154838400Y-113842800D03*
G04 #@! TD*
G04 #@! TO.N,Net-(J17-Pad8)*
G04 #@! TO.C,J17*
X152298400Y-113842800D03*
G04 #@! TO.N,Net-(J17-Pad7)*
X152298400Y-111302800D03*
G04 #@! TO.N,Net-(J17-Pad6)*
X152298400Y-108762800D03*
G04 #@! TO.N,Net-(J17-Pad5)*
X152298400Y-106222800D03*
G04 #@! TO.N,Net-(J17-Pad4)*
X152298400Y-103682800D03*
G04 #@! TO.N,Net-(J17-Pad3)*
X152298400Y-101142800D03*
G04 #@! TO.N,Net-(J17-Pad2)*
X152298400Y-98602800D03*
D10*
G04 #@! TO.N,Net-(J17-Pad1)*
X152298400Y-96062800D03*
G04 #@! TD*
G04 #@! TO.N,Net-(J16-Pad1)*
G04 #@! TO.C,J16*
X149758400Y-96062800D03*
D11*
G04 #@! TO.N,Net-(J16-Pad2)*
X149758400Y-98602800D03*
G04 #@! TO.N,Net-(J16-Pad3)*
X149758400Y-101142800D03*
G04 #@! TO.N,Net-(J16-Pad4)*
X149758400Y-103682800D03*
G04 #@! TO.N,Net-(J16-Pad5)*
X149758400Y-106222800D03*
G04 #@! TO.N,Net-(J16-Pad6)*
X149758400Y-108762800D03*
G04 #@! TO.N,Net-(J16-Pad7)*
X149758400Y-111302800D03*
G04 #@! TO.N,Net-(J16-Pad8)*
X149758400Y-113842800D03*
G04 #@! TD*
G04 #@! TO.N,Net-(J15-Pad8)*
G04 #@! TO.C,J15*
X147218400Y-113842800D03*
G04 #@! TO.N,Net-(J15-Pad7)*
X147218400Y-111302800D03*
G04 #@! TO.N,Net-(J15-Pad6)*
X147218400Y-108762800D03*
G04 #@! TO.N,Net-(J15-Pad5)*
X147218400Y-106222800D03*
G04 #@! TO.N,Net-(J15-Pad4)*
X147218400Y-103682800D03*
G04 #@! TO.N,Net-(J15-Pad3)*
X147218400Y-101142800D03*
G04 #@! TO.N,Net-(J15-Pad2)*
X147218400Y-98602800D03*
D10*
G04 #@! TO.N,Net-(J15-Pad1)*
X147218400Y-96062800D03*
G04 #@! TD*
G04 #@! TO.N,Net-(J14-Pad1)*
G04 #@! TO.C,J14*
X144678400Y-96062800D03*
D11*
G04 #@! TO.N,Net-(J14-Pad2)*
X144678400Y-98602800D03*
G04 #@! TO.N,Net-(J14-Pad3)*
X144678400Y-101142800D03*
G04 #@! TO.N,Net-(J14-Pad4)*
X144678400Y-103682800D03*
G04 #@! TO.N,Net-(J14-Pad5)*
X144678400Y-106222800D03*
G04 #@! TO.N,Net-(J14-Pad6)*
X144678400Y-108762800D03*
G04 #@! TO.N,Net-(J14-Pad7)*
X144678400Y-111302800D03*
G04 #@! TO.N,Net-(J14-Pad8)*
X144678400Y-113842800D03*
G04 #@! TD*
G04 #@! TO.N,Net-(J13-Pad8)*
G04 #@! TO.C,J13*
X142138400Y-113842800D03*
G04 #@! TO.N,Net-(J13-Pad7)*
X142138400Y-111302800D03*
G04 #@! TO.N,Net-(J13-Pad6)*
X142138400Y-108762800D03*
G04 #@! TO.N,Net-(J13-Pad5)*
X142138400Y-106222800D03*
G04 #@! TO.N,Net-(J13-Pad4)*
X142138400Y-103682800D03*
G04 #@! TO.N,Net-(J13-Pad3)*
X142138400Y-101142800D03*
G04 #@! TO.N,Net-(J13-Pad2)*
X142138400Y-98602800D03*
D10*
G04 #@! TO.N,Net-(J13-Pad1)*
X142138400Y-96062800D03*
G04 #@! TD*
G04 #@! TO.N,Net-(J12-Pad1)*
G04 #@! TO.C,J12*
X139598400Y-96062800D03*
D11*
G04 #@! TO.N,Net-(J12-Pad2)*
X139598400Y-98602800D03*
G04 #@! TO.N,Net-(J12-Pad3)*
X139598400Y-101142800D03*
G04 #@! TO.N,Net-(J12-Pad4)*
X139598400Y-103682800D03*
G04 #@! TO.N,Net-(J12-Pad5)*
X139598400Y-106222800D03*
G04 #@! TO.N,Net-(J12-Pad6)*
X139598400Y-108762800D03*
G04 #@! TO.N,Net-(J12-Pad7)*
X139598400Y-111302800D03*
G04 #@! TO.N,Net-(J12-Pad8)*
X139598400Y-113842800D03*
G04 #@! TD*
G04 #@! TO.N,Net-(J11-Pad8)*
G04 #@! TO.C,J11*
X137058400Y-113842800D03*
G04 #@! TO.N,Net-(J11-Pad7)*
X137058400Y-111302800D03*
G04 #@! TO.N,Net-(J11-Pad6)*
X137058400Y-108762800D03*
G04 #@! TO.N,Net-(J11-Pad5)*
X137058400Y-106222800D03*
G04 #@! TO.N,Net-(J11-Pad4)*
X137058400Y-103682800D03*
G04 #@! TO.N,Net-(J11-Pad3)*
X137058400Y-101142800D03*
G04 #@! TO.N,Net-(J11-Pad2)*
X137058400Y-98602800D03*
D10*
G04 #@! TO.N,Net-(J11-Pad1)*
X137058400Y-96062800D03*
G04 #@! TD*
G04 #@! TO.N,Net-(J10-Pad1)*
G04 #@! TO.C,J10*
X134518400Y-96062800D03*
D11*
G04 #@! TO.N,Net-(J10-Pad2)*
X134518400Y-98602800D03*
G04 #@! TO.N,Net-(J10-Pad3)*
X134518400Y-101142800D03*
G04 #@! TO.N,Net-(J10-Pad4)*
X134518400Y-103682800D03*
G04 #@! TO.N,Net-(J10-Pad5)*
X134518400Y-106222800D03*
G04 #@! TO.N,Net-(J10-Pad6)*
X134518400Y-108762800D03*
G04 #@! TO.N,Net-(J10-Pad7)*
X134518400Y-111302800D03*
G04 #@! TO.N,Net-(J10-Pad8)*
X134518400Y-113842800D03*
G04 #@! TD*
G04 #@! TO.N,Net-(J9-Pad8)*
G04 #@! TO.C,J9*
X131978400Y-113842800D03*
G04 #@! TO.N,Net-(J9-Pad7)*
X131978400Y-111302800D03*
G04 #@! TO.N,Net-(J9-Pad6)*
X131978400Y-108762800D03*
G04 #@! TO.N,Net-(J9-Pad5)*
X131978400Y-106222800D03*
G04 #@! TO.N,Net-(J9-Pad4)*
X131978400Y-103682800D03*
G04 #@! TO.N,Net-(J9-Pad3)*
X131978400Y-101142800D03*
G04 #@! TO.N,Net-(J9-Pad2)*
X131978400Y-98602800D03*
D10*
G04 #@! TO.N,Net-(J9-Pad1)*
X131978400Y-96062800D03*
G04 #@! TD*
G04 #@! TO.N,Net-(J8-Pad1)*
G04 #@! TO.C,J8*
X129438400Y-96062800D03*
D11*
G04 #@! TO.N,Net-(J8-Pad2)*
X129438400Y-98602800D03*
G04 #@! TO.N,Net-(J8-Pad3)*
X129438400Y-101142800D03*
G04 #@! TO.N,Net-(J8-Pad4)*
X129438400Y-103682800D03*
G04 #@! TO.N,Net-(J8-Pad5)*
X129438400Y-106222800D03*
G04 #@! TO.N,Net-(J8-Pad6)*
X129438400Y-108762800D03*
G04 #@! TO.N,Net-(J8-Pad7)*
X129438400Y-111302800D03*
G04 #@! TO.N,Net-(J8-Pad8)*
X129438400Y-113842800D03*
G04 #@! TD*
G04 #@! TO.N,Net-(J7-Pad8)*
G04 #@! TO.C,J7*
X126898400Y-113842800D03*
G04 #@! TO.N,Net-(J7-Pad7)*
X126898400Y-111302800D03*
G04 #@! TO.N,Net-(J7-Pad6)*
X126898400Y-108762800D03*
G04 #@! TO.N,Net-(J7-Pad5)*
X126898400Y-106222800D03*
G04 #@! TO.N,Net-(J7-Pad4)*
X126898400Y-103682800D03*
G04 #@! TO.N,Net-(J7-Pad3)*
X126898400Y-101142800D03*
G04 #@! TO.N,Net-(J7-Pad2)*
X126898400Y-98602800D03*
D10*
G04 #@! TO.N,Net-(J7-Pad1)*
X126898400Y-96062800D03*
G04 #@! TD*
D11*
G04 #@! TO.N,Net-(J6-Pad10)*
G04 #@! TO.C,J6*
X172618400Y-116382800D03*
G04 #@! TO.N,Net-(J6-Pad9)*
X172618400Y-113842800D03*
G04 #@! TO.N,Net-(J6-Pad8)*
X172618400Y-111302800D03*
G04 #@! TO.N,Net-(J6-Pad7)*
X172618400Y-108762800D03*
G04 #@! TO.N,Net-(J6-Pad6)*
X172618400Y-106222800D03*
G04 #@! TO.N,Net-(J6-Pad5)*
X172618400Y-103682800D03*
G04 #@! TO.N,Net-(J6-Pad4)*
X172618400Y-101142800D03*
G04 #@! TO.N,Net-(J6-Pad3)*
X172618400Y-98602800D03*
G04 #@! TO.N,Net-(J6-Pad2)*
X172618400Y-96062800D03*
G04 #@! TD*
D10*
G04 #@! TO.N,Net-(J5-Pad1)*
G04 #@! TO.C,J5*
X124358400Y-93522800D03*
D11*
G04 #@! TO.N,Net-(J5-Pad2)*
X124358400Y-96062800D03*
G04 #@! TO.N,Net-(J5-Pad3)*
X124358400Y-98602800D03*
G04 #@! TO.N,Net-(J5-Pad4)*
X124358400Y-101142800D03*
G04 #@! TO.N,Net-(J5-Pad5)*
X124358400Y-103682800D03*
G04 #@! TO.N,Net-(J5-Pad6)*
X124358400Y-106222800D03*
G04 #@! TO.N,Net-(J5-Pad7)*
X124358400Y-108762800D03*
G04 #@! TO.N,Net-(J5-Pad8)*
X124358400Y-111302800D03*
G04 #@! TO.N,Net-(J5-Pad9)*
X124358400Y-113842800D03*
G04 #@! TO.N,Net-(J5-Pad10)*
X124358400Y-116382800D03*
G04 #@! TD*
D10*
G04 #@! TO.N,Net-(J2-Pad1)*
G04 #@! TO.C,J2*
X126898400Y-116382800D03*
D11*
G04 #@! TO.N,Net-(J2-Pad2)*
X129438400Y-116382800D03*
G04 #@! TO.N,Net-(J2-Pad3)*
X131978400Y-116382800D03*
G04 #@! TO.N,Net-(J2-Pad4)*
X134518400Y-116382800D03*
G04 #@! TO.N,Net-(J2-Pad5)*
X137058400Y-116382800D03*
G04 #@! TO.N,Net-(J2-Pad6)*
X139598400Y-116382800D03*
G04 #@! TO.N,Net-(J2-Pad7)*
X142138400Y-116382800D03*
G04 #@! TO.N,Net-(J2-Pad8)*
X144678400Y-116382800D03*
G04 #@! TO.N,Net-(J2-Pad9)*
X147218400Y-116382800D03*
G04 #@! TO.N,Net-(J2-Pad10)*
X149758400Y-116382800D03*
G04 #@! TO.N,Net-(J2-Pad11)*
X152298400Y-116382800D03*
G04 #@! TO.N,Net-(J2-Pad12)*
X154838400Y-116382800D03*
G04 #@! TO.N,Net-(J2-Pad13)*
X157378400Y-116382800D03*
G04 #@! TO.N,Net-(J2-Pad14)*
X159918400Y-116382800D03*
G04 #@! TO.N,Net-(J2-Pad15)*
X162458400Y-116382800D03*
G04 #@! TO.N,Net-(J2-Pad16)*
X164998400Y-116382800D03*
G04 #@! TO.N,Net-(J2-Pad17)*
X167538400Y-116382800D03*
G04 #@! TO.N,Net-(J2-Pad18)*
X170078400Y-116382800D03*
G04 #@! TD*
G04 #@! TO.N,Net-(J1-Pad18)*
G04 #@! TO.C,J1*
X170078400Y-118922800D03*
G04 #@! TO.N,Net-(J1-Pad17)*
X167538400Y-118922800D03*
G04 #@! TO.N,Net-(J1-Pad16)*
X164998400Y-118922800D03*
G04 #@! TO.N,Net-(J1-Pad15)*
X162458400Y-118922800D03*
G04 #@! TO.N,Net-(J1-Pad14)*
X159918400Y-118922800D03*
G04 #@! TO.N,Net-(J1-Pad13)*
X157378400Y-118922800D03*
G04 #@! TO.N,Net-(J1-Pad12)*
X154838400Y-118922800D03*
G04 #@! TO.N,Net-(J1-Pad11)*
X152298400Y-118922800D03*
G04 #@! TO.N,Net-(J1-Pad10)*
X149758400Y-118922800D03*
G04 #@! TO.N,Net-(J1-Pad9)*
X147218400Y-118922800D03*
G04 #@! TO.N,Net-(J1-Pad8)*
X144678400Y-118922800D03*
G04 #@! TO.N,Net-(J1-Pad7)*
X142138400Y-118922800D03*
G04 #@! TO.N,Net-(J1-Pad6)*
X139598400Y-118922800D03*
G04 #@! TO.N,Net-(J1-Pad5)*
X137058400Y-118922800D03*
G04 #@! TO.N,Net-(J1-Pad4)*
X134518400Y-118922800D03*
G04 #@! TO.N,Net-(J1-Pad3)*
X131978400Y-118922800D03*
G04 #@! TO.N,Net-(J1-Pad2)*
X129438400Y-118922800D03*
D12*
G04 #@! TO.N,Net-(J1-Pad1)*
X126898400Y-118922800D03*
G04 #@! TD*
D10*
G04 #@! TO.N,Net-(J4-Pad1)*
G04 #@! TO.C,J4*
X126898400Y-90982800D03*
D11*
G04 #@! TO.N,Net-(J4-Pad2)*
X129438400Y-90982800D03*
G04 #@! TO.N,Net-(J4-Pad3)*
X131978400Y-90982800D03*
G04 #@! TO.N,Net-(J4-Pad4)*
X134518400Y-90982800D03*
G04 #@! TO.N,Net-(J4-Pad5)*
X137058400Y-90982800D03*
G04 #@! TO.N,Net-(J4-Pad6)*
X139598400Y-90982800D03*
G04 #@! TO.N,Net-(J4-Pad7)*
X142138400Y-90982800D03*
G04 #@! TO.N,Net-(J4-Pad8)*
X144678400Y-90982800D03*
G04 #@! TO.N,Net-(J4-Pad9)*
X147218400Y-90982800D03*
G04 #@! TO.N,Net-(J4-Pad10)*
X149758400Y-90982800D03*
G04 #@! TO.N,Net-(J4-Pad11)*
X152298400Y-90982800D03*
G04 #@! TO.N,Net-(J4-Pad12)*
X154838400Y-90982800D03*
G04 #@! TO.N,Net-(J4-Pad13)*
X157378400Y-90982800D03*
G04 #@! TO.N,Net-(J4-Pad14)*
X159918400Y-90982800D03*
G04 #@! TO.N,Net-(J4-Pad15)*
X162458400Y-90982800D03*
G04 #@! TO.N,Net-(J4-Pad16)*
X164998400Y-90982800D03*
G04 #@! TO.N,Net-(J4-Pad17)*
X167538400Y-90982800D03*
G04 #@! TO.N,Net-(J4-Pad18)*
X170078400Y-90982800D03*
G04 #@! TD*
G04 #@! TO.N,Net-(J3-Pad18)*
G04 #@! TO.C,J3*
X170078400Y-93522800D03*
G04 #@! TO.N,Net-(J3-Pad17)*
X167538400Y-93522800D03*
G04 #@! TO.N,Net-(J3-Pad16)*
X164998400Y-93522800D03*
G04 #@! TO.N,Net-(J3-Pad15)*
X162458400Y-93522800D03*
G04 #@! TO.N,Net-(J3-Pad14)*
X159918400Y-93522800D03*
G04 #@! TO.N,Net-(J3-Pad13)*
X157378400Y-93522800D03*
G04 #@! TO.N,Net-(J3-Pad12)*
X154838400Y-93522800D03*
G04 #@! TO.N,Net-(J3-Pad11)*
X152298400Y-93522800D03*
G04 #@! TO.N,Net-(J3-Pad10)*
X149758400Y-93522800D03*
G04 #@! TO.N,Net-(J3-Pad9)*
X147218400Y-93522800D03*
G04 #@! TO.N,Net-(J3-Pad8)*
X144678400Y-93522800D03*
G04 #@! TO.N,Net-(J3-Pad7)*
X142138400Y-93522800D03*
G04 #@! TO.N,Net-(J3-Pad6)*
X139598400Y-93522800D03*
G04 #@! TO.N,Net-(J3-Pad5)*
X137058400Y-93522800D03*
G04 #@! TO.N,Net-(J3-Pad4)*
X134518400Y-93522800D03*
G04 #@! TO.N,Net-(J3-Pad3)*
X131978400Y-93522800D03*
G04 #@! TO.N,Net-(J3-Pad2)*
X129438400Y-93522800D03*
D12*
G04 #@! TO.N,Net-(J3-Pad1)*
X126898400Y-93522800D03*
G04 #@! TD*
M02*
