%FSLAX45Y45*%
G04 Gerber Fmt 4.5, Leading zero omitted, Abs format (unit mm)*
G04 Created by KiCad (PCBNEW (5.0.0)) date 12/09/18 19:25:15*
%MOMM*%
%LPD*%
G01*
G04 APERTURE LIST*
%ADD10C,0.150000*%
%ADD11C,0.200000*%
%ADD12C,0.300000*%
G04 APERTURE END LIST*
D10*
X16600110Y-8750360D02*
X13100110Y-8750360D01*
X12100110Y-9750360D02*
X12100110Y-11250360D01*
X13100110Y-12250360D02*
G75*
G02X12100110Y-11250360I0J1000000D01*
G01*
X12100110Y-9750360D02*
G75*
G02X13100110Y-8750360I1000000J0D01*
G01*
X17600110Y-11250360D02*
X17600110Y-9750360D01*
X13100110Y-12250360D02*
X16600110Y-12250360D01*
X17600110Y-11250360D02*
G75*
G02X16600110Y-12250360I-1000000J0D01*
G01*
X16600110Y-8750360D02*
G75*
G02X17600110Y-9750360I0J-1000000D01*
G01*
D11*
D12*
X12379038Y-12723574D02*
X12379038Y-12423574D01*
X12450467Y-12423574D01*
X12493324Y-12437860D01*
X12521896Y-12466431D01*
X12536181Y-12495003D01*
X12550467Y-12552146D01*
X12550467Y-12595003D01*
X12536181Y-12652146D01*
X12521896Y-12680717D01*
X12493324Y-12709289D01*
X12450467Y-12723574D01*
X12379038Y-12723574D01*
X12679038Y-12723574D02*
X12679038Y-12523574D01*
X12679038Y-12580717D02*
X12693324Y-12552146D01*
X12707610Y-12537860D01*
X12736181Y-12523574D01*
X12764753Y-12523574D01*
X12864753Y-12723574D02*
X12864753Y-12523574D01*
X12864753Y-12423574D02*
X12850467Y-12437860D01*
X12864753Y-12452146D01*
X12879038Y-12437860D01*
X12864753Y-12423574D01*
X12864753Y-12452146D01*
X13050467Y-12723574D02*
X13021896Y-12709289D01*
X13007610Y-12680717D01*
X13007610Y-12423574D01*
X13207610Y-12723574D02*
X13179038Y-12709289D01*
X13164753Y-12680717D01*
X13164753Y-12423574D01*
X13550467Y-12723574D02*
X13550467Y-12423574D01*
X13650467Y-12637860D01*
X13750467Y-12423574D01*
X13750467Y-12723574D01*
X14021896Y-12723574D02*
X14021896Y-12566431D01*
X14007610Y-12537860D01*
X13979038Y-12523574D01*
X13921896Y-12523574D01*
X13893324Y-12537860D01*
X14021896Y-12709289D02*
X13993324Y-12723574D01*
X13921896Y-12723574D01*
X13893324Y-12709289D01*
X13879038Y-12680717D01*
X13879038Y-12652146D01*
X13893324Y-12623574D01*
X13921896Y-12609289D01*
X13993324Y-12609289D01*
X14021896Y-12595003D01*
X14164753Y-12523574D02*
X14164753Y-12823574D01*
X14164753Y-12537860D02*
X14193324Y-12523574D01*
X14250467Y-12523574D01*
X14279038Y-12537860D01*
X14293324Y-12552146D01*
X14307610Y-12580717D01*
X14307610Y-12666431D01*
X14293324Y-12695003D01*
X14279038Y-12709289D01*
X14250467Y-12723574D01*
X14193324Y-12723574D01*
X14164753Y-12709289D01*
X14436181Y-12695003D02*
X14450467Y-12709289D01*
X14436181Y-12723574D01*
X14421896Y-12709289D01*
X14436181Y-12695003D01*
X14436181Y-12723574D01*
X14436181Y-12537860D02*
X14450467Y-12552146D01*
X14436181Y-12566431D01*
X14421896Y-12552146D01*
X14436181Y-12537860D01*
X14436181Y-12566431D01*
M02*
