M48
;DRILL file {KiCad (5.0.0)} date 12/09/18 19:25:07
;FORMAT={-:-/ absolute / metric / decimal}
FMAT,2
METRIC,TZ
T1C0.762
%
G90
G05
M71
T1
X154.94Y-101.6
X154.94Y-104.14
X154.94Y-106.68
X154.94Y-109.22
X147.32Y-101.6
X147.32Y-104.14
X147.32Y-106.68
X147.32Y-109.22
X152.4Y-101.6
X152.4Y-104.14
X152.4Y-106.68
X152.4Y-109.22
X124.46Y-101.6
X124.46Y-104.14
X124.46Y-106.68
X124.46Y-109.22
X172.72Y-111.76
X172.72Y-114.3
X157.48Y-101.6
X157.48Y-104.14
X157.48Y-106.68
X157.48Y-109.22
X139.7Y-101.6
X139.7Y-104.14
X139.7Y-106.68
X139.7Y-109.22
X172.72Y-96.52
X172.72Y-99.06
X137.16Y-101.6
X137.16Y-104.14
X137.16Y-106.68
X137.16Y-109.22
X144.78Y-101.6
X144.78Y-104.14
X144.78Y-106.68
X144.78Y-109.22
X132.08Y-101.6
X132.08Y-104.14
X132.08Y-106.68
X132.08Y-109.22
X170.18Y-101.6
X170.18Y-104.14
X170.18Y-106.68
X170.18Y-109.22
X129.54Y-101.6
X129.54Y-104.14
X129.54Y-106.68
X129.54Y-109.22
X127.Y-96.52
X127.Y-99.06
X129.54Y-96.52
X129.54Y-99.06
X132.08Y-96.52
X132.08Y-99.06
X134.62Y-96.52
X134.62Y-99.06
X137.16Y-96.52
X137.16Y-99.06
X139.7Y-96.52
X139.7Y-99.06
X142.24Y-96.52
X142.24Y-99.06
X144.78Y-96.52
X144.78Y-99.06
X147.32Y-96.52
X147.32Y-99.06
X149.86Y-96.52
X149.86Y-99.06
X152.4Y-96.52
X152.4Y-99.06
X154.94Y-96.52
X154.94Y-99.06
X157.48Y-96.52
X157.48Y-99.06
X160.02Y-96.52
X160.02Y-99.06
X162.56Y-96.52
X162.56Y-99.06
X165.1Y-96.52
X165.1Y-99.06
X167.64Y-96.52
X167.64Y-99.06
X170.18Y-96.52
X170.18Y-99.06
X172.72Y-116.84
X124.46Y-111.76
X124.46Y-114.3
X162.56Y-101.6
X162.56Y-104.14
X162.56Y-106.68
X162.56Y-109.22
X160.02Y-101.6
X160.02Y-104.14
X160.02Y-106.68
X160.02Y-109.22
X127.Y-111.76
X127.Y-114.3
X129.54Y-111.76
X129.54Y-114.3
X132.08Y-111.76
X132.08Y-114.3
X134.62Y-111.76
X134.62Y-114.3
X137.16Y-111.76
X137.16Y-114.3
X139.7Y-111.76
X139.7Y-114.3
X142.24Y-111.76
X142.24Y-114.3
X144.78Y-111.76
X144.78Y-114.3
X147.32Y-111.76
X147.32Y-114.3
X149.86Y-111.76
X149.86Y-114.3
X152.4Y-111.76
X152.4Y-114.3
X154.94Y-111.76
X154.94Y-114.3
X157.48Y-111.76
X157.48Y-114.3
X160.02Y-111.76
X160.02Y-114.3
X162.56Y-111.76
X162.56Y-114.3
X165.1Y-111.76
X165.1Y-114.3
X167.64Y-111.76
X167.64Y-114.3
X170.18Y-111.76
X170.18Y-114.3
X142.24Y-101.6
X142.24Y-104.14
X142.24Y-106.68
X142.24Y-109.22
X127.Y-116.84
X127.Y-119.38
X129.54Y-116.84
X129.54Y-119.38
X132.08Y-116.84
X132.08Y-119.38
X134.62Y-116.84
X134.62Y-119.38
X137.16Y-116.84
X137.16Y-119.38
X139.7Y-116.84
X139.7Y-119.38
X142.24Y-116.84
X142.24Y-119.38
X144.78Y-116.84
X144.78Y-119.38
X147.32Y-116.84
X147.32Y-119.38
X149.86Y-116.84
X149.86Y-119.38
X152.4Y-116.84
X152.4Y-119.38
X154.94Y-116.84
X154.94Y-119.38
X157.48Y-116.84
X157.48Y-119.38
X160.02Y-116.84
X160.02Y-119.38
X162.56Y-116.84
X162.56Y-119.38
X165.1Y-116.84
X165.1Y-119.38
X167.64Y-116.84
X167.64Y-119.38
X170.18Y-116.84
X170.18Y-119.38
X172.72Y-93.98
X124.46Y-96.52
X124.46Y-99.06
X167.64Y-101.6
X167.64Y-104.14
X167.64Y-106.68
X167.64Y-109.22
X127.Y-101.6
X127.Y-104.14
X127.Y-106.68
X127.Y-109.22
X124.46Y-116.84
X172.72Y-101.6
X172.72Y-104.14
X172.72Y-106.68
X172.72Y-109.22
X165.1Y-101.6
X165.1Y-104.14
X165.1Y-106.68
X165.1Y-109.22
X149.86Y-101.6
X149.86Y-104.14
X149.86Y-106.68
X149.86Y-109.22
X127.Y-91.44
X127.Y-93.98
X129.54Y-91.44
X129.54Y-93.98
X132.08Y-91.44
X132.08Y-93.98
X134.62Y-91.44
X134.62Y-93.98
X137.16Y-91.44
X137.16Y-93.98
X139.7Y-91.44
X139.7Y-93.98
X142.24Y-91.44
X142.24Y-93.98
X144.78Y-91.44
X144.78Y-93.98
X147.32Y-91.44
X147.32Y-93.98
X149.86Y-91.44
X149.86Y-93.98
X152.4Y-91.44
X152.4Y-93.98
X154.94Y-91.44
X154.94Y-93.98
X157.48Y-91.44
X157.48Y-93.98
X160.02Y-91.44
X160.02Y-93.98
X162.56Y-91.44
X162.56Y-93.98
X165.1Y-91.44
X165.1Y-93.98
X167.64Y-91.44
X167.64Y-93.98
X170.18Y-91.44
X170.18Y-93.98
X124.46Y-93.98
X134.62Y-101.6
X134.62Y-104.14
X134.62Y-106.68
X134.62Y-109.22
T0
M30
